SplineFontDB: 1.0
FontName: Tuffy
FullName: Tuffy Regular
FamilyName: Tuffy
Weight: Regular
Copyright: Created by Thatcher Ulrich (http://tulrich.com) with FontForge 1.0 (http://fontforge.sf.net)\n\nThis font, including hint instructions, has been donated to the Public Domain.  Do whatever you want with it.\n
Comments: 2004-9-1: Created.
Version: 001.000
ItalicAngle: 0
UnderlinePosition: -100
UnderlineWidth: 50
Ascent: 780
Descent: 220
NeedsXUIDChange: 1
XUID: [1021 745 1046372284 2914086]
FSType: 0
PfmFamily: 33
TTFWeight: 500
TTFWidth: 5
Panose: 2 11 6 3 6 1 0 0 0 0
LineGap: 93
VLineGap: 0
OS2WinAscent: 0
OS2WinAOffset: 1
OS2WinDescent: 0
OS2WinDOffset: 1
HheadAscent: 0
HheadAOffset: 1
HheadDescent: 0
HheadDOffset: 1
ScriptLang: 2
 1 latn 1 dflt 
 1 DFLT 1 dflt 
TtfTable: cvt  4
!$MDh
EndTtf
LangName: 1033 "" "" "" "" "" "" "" "" "" "Thatcher Ulrich" "" "http://tulrich.com+AAoA" "http://tulrich.com+AAoA" "Public Domain+AAoA" 
Encoding: unicode
UnicodeInterp: none
DisplaySize: -36
AntiAlias: 1
FitToEm: 1
WinInfo: 16 16 7
BeginPrivate: 7
BlueValues 23 [-16 2 522 538 708 728]
OtherBlues 0 
StdHW 4 [66]
StdVW 5 [70]

StemSnapH 6 [66] 

StemSnapV 6 [70] 

BlueScale 8 0.039625
EndPrivate
Grid
-24 262 m 2
 772 262 l 0
531 830 m 25
 531 -16 l 25
-20 710 m 2
 776 710 l 0
-22 524 m 2
 774 524 l 0
490 830 m 25
 490 -16 l 25
562 832 m 25
 562 -14 l 25
-24 355 m 2
 772 355 l 0
-28 -14 m 2
 768 -14 l 0
70 832 m 25
 70 -14 l 25
EndSplineSet
TeXData: 1 10485760 0 315621 157810 105207 456131 1048576 105207 783286 444596 497025 792723 393216 433062 380633 303038 157286 324010 404750 52429 2506097 1059062 262144
BeginChars: 65536 203
StartChar: exclam
Encoding: 33 33 1
Width: 186
Flags: W
HStem: -6 96<83.4254 96> 691 20G<57 130>
VStem: 57 73<195 711>
Fore
45 42 m 4
 45 68 67 90 93 90 c 4
 119 90 141 68 141 42 c 4
 141 16 119 -6 93 -6 c 4
 67 -6 45 16 45 42 c 4
130 195 m 5
 57 195 l 5
 57 711 l 5
 130 711 l 5
 130 195 l 5
EndSplineSet
EndChar
StartChar: quotedbl
Encoding: 34 34 2
Width: 337
Flags: W
VStem: 60 70<513 756> 203 70<511 754>
Fore
203 511 m 1
 203 754 l 1
 273 754 l 5
 273 511 l 5
 203 511 l 1
60 513 m 1
 60 756 l 1
 130 756 l 1
 130 513 l 1
 60 513 l 1
EndSplineSet
EndChar
StartChar: numbersign
Encoding: 35 35 3
Width: 776
Flags: W
HStem: 198 69<58 228 301 468 541 717> 432 68<58 228 301 468 541 717>
VStem: 228 73<26 198 267 432 500 685> 468 73<26 198 267 432 500 685>
Fore
468 267 m 0
 468 432 l 0
 301 432 l 0
 301 267 l 0
 468 267 l 0
541 198 m 0
 541 26 l 1
 468 26 l 1
 468 198 l 0
 301 198 l 0
 301 26 l 1
 228 26 l 1
 228 198 l 0
 58 198 l 1
 58 267 l 1
 228 267 l 0
 228 432 l 0
 58 432 l 1
 58 500 l 1
 228 500 l 0
 228 685 l 1
 301 685 l 1
 301 500 l 0
 468 500 l 0
 468 685 l 1
 541 685 l 1
 541 500 l 0
 717 500 l 1
 717 432 l 1
 541 432 l 0
 541 267 l 0
 717 267 l 1
 717 198 l 1
 541 198 l 0
EndSplineSet
KernsSLIF: 36 -27 0 0
EndChar
StartChar: dollar
Encoding: 36 36 4
Width: 429
Flags: W
HStem: 0 148<198 240> 89 59<167 204> 565 59<167 204> 565 146<167 217>
VStem: 27 73<479 497> 167 73<0 89 624 711> 313 73<223 241>
Fore
24 206 m 1x4e
 83 225 l 1
 97 191 147 148 204 148 c 0
 257 148 313 167 313 235 c 1
 313 281 267 320 201 332 c 0
 96 350 27 392 27 489 c 0
 27 575 113 624 167 624 c 0xae
 167 711 l 9
 240 711 l 17x1e
 240 626 l 0
 294 626 375 566 387 511 c 4
 327 490 l 1
 318 519 269 565 204 565 c 1
 129 565 100 532 100 485 c 1
 100 427 133 414 200 401 c 0
 311 381 386 319 386 236 c 0
 386 133 294 89 240 89 c 0x6e
 240 0 l 9
 167 0 l 17x8e
 167 89 l 0
 119 89 40 144 24 206 c 1x4e
EndSplineSet
EndChar
StartChar: percent
Encoding: 37 37 5
Width: 685
Flags: W
HStem: 51 56<493 511> 255 59<493 511> 395 56<173 191> 599 59<173 191>
VStem: 46 62<526 532> 250 63<526 532> 367 63<182 184> 571 63<182 184>
DStem: 481 644 551 644 129 67 202 67
Fore
430 182 m 0
 430 140 457 107 499 107 c 0
 538 107 571 138 571 182 c 0
 571 221 540 255 499 255 c 0
 461 255 430 221 430 182 c 0
367 182 m 0
 367 255 426 314 500 314 c 0
 574 314 634 255 634 182 c 0
 634 109 574 51 500 51 c 0
 426 51 367 109 367 182 c 0
108 526 m 0
 108 484 136 451 178 451 c 0
 217 451 250 482 250 526 c 0
 250 565 219 599 178 599 c 0
 140 599 108 565 108 526 c 0
46 526 m 0
 46 599 105 658 179 658 c 0
 253 658 313 599 313 526 c 0
 313 453 253 395 179 395 c 0
 105 395 46 453 46 526 c 0
202 67 m 1
 129 67 l 1
 481 644 l 0
 551 644 l 1
 202 67 l 1
EndSplineSet
EndChar
StartChar: ampersand
Encoding: 38 38 6
Width: 606
Flags: W
HStem: -15 69<269 282> 199 68<302 407 302 557> 369 69<262 355> 660 69<248 277>
VStem: 41 73<192 226> 81 73<554 562> 407 73<192 199> 407 150<198 198.938>
Fore
367 600 m 17xf4
 356 631 306 660 264 660 c 1
 211 660 154 626 154 554 c 1xf4
 154 478 208 438 272 438 c 1
 355 438 l 1
 355 369 l 1
 274 369 l 2
 183 369 114 308 114 210 c 0
 114 121 188 54 269 54 c 1
 352 54 407 125 407 199 c 1xfa
 302 199 l 1
 302 267 l 1
 557 267 l 1
 557 198 l 1xf1
 480 198 l 1
 480 113 421 -15 269 -15 c 1
 154 -15 41 62 41 203 c 0xfa
 41 340 120 392 173 404 c 1
 130 418 81 468 81 554 c 0
 81 654 158 729 265 729 c 0
 349 729 403 688 428 637 c 9
 367 600 l 17xf4
EndSplineSet
EndChar
StartChar: quotesingle
Encoding: 39 39 7
Width: 187
Flags: W
VStem: 58 73<513 756>
Fore
58 513 m 1
 58 756 l 1
 131 756 l 1
 131 513 l 1
 58 513 l 1
EndSplineSet
EndChar
StartChar: parenleft
Encoding: 40 40 8
Width: 268
Flags: HMW
Fore
131 0 m 1
 51 123 15 245 15 382 c 0
 15 508 54 634 131 755 c 1
 218 755 l 1
 128 624 89 508 89 377 c 0
 89 249 133 124 218 0 c 1
 131 0 l 1
EndSplineSet
EndChar
StartChar: parenright
Encoding: 41 41 9
Width: 262
Flags: HMW
Fore
125 0 m 1
 39 0 l 1
 123 123 168 253 168 381 c 0
 168 501 124 630 39 755 c 1
 125 755 l 1
 202 634 242 507 242 381 c 0
 242 247 204 121 125 0 c 1
EndSplineSet
EndChar
StartChar: asterisk
Encoding: 42 42 10
Width: 446
Flags: W
HStem: 278 69<28 168 287 420>
DStem: 96 469 155 504 167 347 226 381 168 278 226 243 100 164 160 129 226 243 286 278 292 129 351 165 296 506 355 470 226 381 287 347
Fore
286 278 m 1
 351 165 l 1
 292 129 l 1
 226 243 l 1
 160 129 l 1
 100 164 l 1
 168 278 l 1
 28 278 l 1
 28 347 l 1
 167 347 l 1
 96 469 l 1
 155 504 l 1
 226 381 l 1
 296 506 l 1
 355 470 l 1
 287 347 l 1
 420 347 l 1
 420 278 l 1
 286 278 l 1
EndSplineSet
EndChar
StartChar: plus
Encoding: 43 43 11
Width: 437
Flags: W
HStem: 278 69<33 183 252 402>
VStem: 183 69<126 278 347 499>
Fore
33 347 m 1
 183 347 l 1
 183 499 l 1
 252 499 l 1
 252 347 l 1
 402 347 l 1
 402 278 l 1
 252 278 l 1
 252 126 l 1
 183 126 l 1
 183 278 l 1
 33 278 l 1
 33 347 l 1
EndSplineSet
EndChar
StartChar: comma
Encoding: 44 44 12
Width: 195
Flags: W
VStem: 98 48<-6 42>
Fore
146 42 m 5
 146 -35 101 -91 90 -108 c 5
 63 -93 l 5
 73 -78 98 -41 98 -6 c 5
 67 -6 50 17 50 42 c 5
 50 69 71 90 98 90 c 5
 127 90 146 71 146 42 c 5
EndSplineSet
EndChar
StartChar: hyphen
Encoding: 45 45 13
Width: 483
Flags: W
HStem: 275 69<48 439>
Fore
48 344 m 5
 439 344 l 5
 439 275 l 5
 48 275 l 5
 48 344 l 5
EndSplineSet
EndChar
StartChar: period
Encoding: 46 46 14
Width: 198
Flags: HMW
Back
27.1055 67.7627 m 4
 27.1055 105.167 57.4629 135.525 94.8672 135.525 c 4
 132.272 135.525 162.63 105.167 162.63 67.7627 c 4
 162.63 30.3574 132.272 0 94.8672 0 c 4
 57.4629 0 27.1055 30.3574 27.1055 67.7627 c 4
EndSplineSet
Fore
50 42 m 4
 50 68 72 90 98 90 c 4
 124 90 146 68 146 42 c 4
 146 16 124 -6 98 -6 c 4
 72 -6 50 16 50 42 c 4
EndSplineSet
EndChar
StartChar: slash
Encoding: 47 47 15
Width: 435
Flags: MW
DStem: 354 754 431 754 4 0 81 0
Fore
81 0 m 1
 4 0 l 1
 354 754 l 0
 431 754 l 1
 81 0 l 1
EndSplineSet
EndChar
StartChar: zero
Encoding: 48 48 16
Width: 555
Flags: W
HStem: -15 69<275 287> 660 69<279 287>
VStem: 46 73<355 386> 432 73<355 386>
Fore
46 355 m 1
 46 555 131 729 279 729 c 1
 427 729 505 555 505 355 c 1
 505 156 423 -15 275 -15 c 1
 127 -15 46 156 46 355 c 1
119 355 m 1
 119 219 167 54 275 54 c 1
 384 54 432 219 432 355 c 1
 432 492 388 660 279 660 c 1
 171 660 119 492 119 355 c 1
EndSplineSet
EndChar
StartChar: one
Encoding: 49 49 17
Width: 555
Flags: MW
VStem: 281 73<0 711>
DStem: 282 711 281 623 156 603 200 556
Fore
281 623 m 1
 200 556 l 1
 156 603 l 1
 282 711 l 1
 354 711 l 1
 354 0 l 1
 281 0 l 1
 281 623 l 1
EndSplineSet
EndChar
StartChar: two
Encoding: 50 50 18
Width: 555
Flags: W
HStem: 0 69<198 501> 661 69<273 286>
VStem: 401 75<479 497>
DStem: 284 285 326 221 45 0 198 69
Back
54.5947 492.06 m 4
 54.5947 623.265 151.739 729.75 271.435 729.75 c 4
 391.131 729.75 488.275 623.265 488.275 492.06 c 4
 488.275 360.855 391.131 254.37 271.435 254.37 c 4
 151.739 254.37 54.5947 360.855 54.5947 492.06 c 4
165.1 492.06 m 4
 165.1 568.021 212.738 629.67 271.435 629.67 c 4
 330.132 629.67 377.77 568.021 377.77 492.06 c 4
 377.77 416.1 330.132 354.45 271.435 354.45 c 4
 212.738 354.45 165.1 416.1 165.1 492.06 c 4
EndSplineSet
Fore
134 539 m 9
 65 569 l 17
 90 658 174 730 273 730 c 1
 363 730 480 656 476 479 c 1
 476 378 394 304 326 221 c 1
 198 69 l 1
 501 69 l 17
 501 0 l 1
 45 0 l 1
 284 285 l 17
 338 344 401 402 401 479 c 0
 401 586 337 661 273 661 c 1
 211 661 156 620 134 539 c 9
EndSplineSet
EndChar
StartChar: three
Encoding: 51 51 19
Width: 555
Flags: MW
Back
12.5098 525.42 m 4
 12.5098 645.115 109.654 729.75 229.35 729.75 c 4
 349.046 729.75 446.19 645.115 446.19 525.42 c 4
 446.19 405.725 349.046 321.09 229.35 321.09 c 4
 109.654 321.09 12.5098 405.725 12.5098 525.42 c 4
110.505 525.42 m 4
 110.505 591.022 163.748 631.755 229.35 631.755 c 4
 294.952 631.755 348.195 591.022 348.195 525.42 c 4
 348.195 459.817 294.952 419.085 229.35 419.085 c 4
 163.748 419.085 110.505 459.817 110.505 525.42 c 4
229.35 525.42 m 29
11.4678 202.245 m 4
 11.4678 321.94 108.611 419.085 228.308 419.085 c 4
 348.003 419.085 445.147 321.94 445.147 202.245 c 4
 445.147 82.5488 348.003 -14.5947 228.308 -14.5947 c 4
 108.612 -14.5947 11.4678 82.5488 11.4678 202.245 c 4
109.463 202.245 m 4
 109.463 267.848 162.705 321.09 228.308 321.09 c 4
 293.91 321.09 347.152 267.848 347.152 202.245 c 4
 347.152 136.643 293.91 83.4004 228.308 83.4004 c 4
 162.705 83.4004 109.463 136.643 109.463 202.245 c 4
228.308 202.245 m 29
EndSplineSet
Fore
60 123 m 9
 136 146 l 17
 161 92 219 54 272 54 c 1
 352 54 426 104 426 197 c 1
 426 294 351 338 274 338 c 0
 235.666 338.331 l 1
 236 403 l 1
 274 403 l 0
 345 403 417 444 417 530 c 1
 417 613 367 663 273 663 c 1
 270 663 l 0
 219 663 161 635 144 586 c 9
 77 617 l 17
 115 694 192 731 273 731 c 1
 396 731 490 639 490 530 c 1
 490 435 439 391 413 368 c 1
 442 343 499 295 499 197 c 1
 499 68 399 -15 272 -15 c 1
 196 -15 98 35 60 123 c 9
EndSplineSet
EndChar
StartChar: four
Encoding: 52 52 20
Width: 555
Flags: MW
HStem: 194 69<160 342 415 509>
VStem: 342 73<0 194 263 705>
DStem: 336 711 342 590.423 38 194 160 263
Fore
415 705.688 m 1
 415 262 l 9
 509 262 l 17
 509 194 l 1
 415 194 l 1
 415 0 l 1
 342 0 l 1
 342 194 l 1
 38 194 l 9
 336 711 l 1
 342 711 l 1
 415 711 l 1
 418 711 l 1
 415 705.688 l 1
342 590.423 m 5
 160 263 l 1
 342 263 l 1
 342 590.423 l 5
EndSplineSet
EndChar
StartChar: five
Encoding: 53 53 21
Width: 555
Flags: MW
HStem: 642 69<140 466>
DStem: 140 711 198 642 91 328 171 424
Back
109.463 552.525 m 4
 109.463 650.354 189.793 729.75 288.772 729.75 c 4
 387.752 729.75 468.082 650.354 468.082 552.525 c 4
 468.082 454.697 387.752 375.3 288.772 375.3 c 4
 189.793 375.3 109.463 454.697 109.463 552.525 c 4
70.8896 202.245 m 4
 70.8896 321.94 168.034 419.085 287.73 419.085 c 4
 407.426 419.085 504.57 321.94 504.57 202.245 c 4
 504.57 82.5488 407.426 -14.5947 287.73 -14.5947 c 4
 168.034 -14.5947 70.8896 82.5488 70.8896 202.245 c 4
168.885 202.245 m 4
 168.885 267.848 222.128 321.09 287.73 321.09 c 4
 353.332 321.09 406.575 267.848 406.575 202.245 c 4
 406.575 136.643 353.332 83.4004 287.73 83.4004 c 4
 222.128 83.4004 168.885 136.643 168.885 202.245 c 4
287.73 202.245 m 29
EndSplineSet
Fore
270 374 m 1
 208 374 135 348 91 328 c 9
 140 711 l 1
 466 711 l 1
 466 642 l 1
 198 642 l 1
 171 424 l 1
 198 438 232 440 273 440 c 1
 402 440 505 345 505 204 c 1
 505 102 423 -15 287 -15 c 1
 174 -14 85 65 58 161 c 9
 130 175 l 17
 147 125 191 54 287 54 c 1
 373 54 433 119 433 205 c 1
 433 300 354 374 270 374 c 1
EndSplineSet
EndChar
StartChar: six
Encoding: 54 54 22
Width: 555
Flags: MW
DStem: 313 740 375 703 140 425 208 404
Back
97.3379 552.525 m 4
 97.3379 650.354 177.668 729.75 276.647 729.75 c 4
 375.627 729.75 455.957 650.354 455.957 552.525 c 4
 455.957 454.697 375.627 375.3 276.647 375.3 c 4
 177.668 375.3 97.3379 454.697 97.3379 552.525 c 4
58.7646 202.245 m 4
 58.7646 321.94 155.909 419.085 275.605 419.085 c 4
 395.301 419.085 492.445 321.94 492.445 202.245 c 4
 492.445 82.5488 395.301 -14.5947 275.605 -14.5947 c 4
 155.909 -14.5947 58.7646 82.5488 58.7646 202.245 c 4
156.76 202.245 m 4
 156.76 267.848 210.003 321.09 275.605 321.09 c 4
 341.207 321.09 394.45 267.848 394.45 202.245 c 4
 394.45 136.643 341.207 83.4004 275.605 83.4004 c 4
 210.003 83.4004 156.76 136.643 156.76 202.245 c 4
275.605 202.245 m 29
EndSplineSet
Fore
426 199 m 1
 426 278 362 346 275 346 c 1
 188 346 129 274 129 201 c 1
 129 118 198 58 276 58 c 1
 366 58 426 130 426 199 c 1
208 404 m 1
 230 413 246 419 275 419 c 0
 396 419 495 323 495 199 c 1
 495 98 410 -15 274 -15 c 1
 144 -14 60 94 60 200 c 1
 60 300 117 383 140 425 c 1
 313 740 l 9
 375 703 l 17
 208 404 l 1
EndSplineSet
EndChar
StartChar: seven
Encoding: 55 55 23
Width: 555
Flags: HMW
HStem: 638 73<49 418>
DStem: 418 638 522 711 166 0 251 0
Fore
522 711 m 1
 251 0 l 1
 166 0 l 1
 418 638 l 1
 49 638 l 1
 49 711 l 1
 522 711 l 1
EndSplineSet
EndChar
StartChar: eight
Encoding: 56 56 24
Width: 555
Flags: MW
Back
66.7197 525.42 m 4
 66.7197 645.115 163.864 729.75 283.56 729.75 c 4
 403.256 729.75 500.4 645.115 500.4 525.42 c 4
 500.4 405.725 403.256 321.09 283.56 321.09 c 4
 163.864 321.09 66.7197 405.725 66.7197 525.42 c 4
164.715 525.42 m 4
 164.715 591.022 217.958 631.755 283.56 631.755 c 4
 349.162 631.755 402.405 591.022 402.405 525.42 c 4
 402.405 459.817 349.162 419.085 283.56 419.085 c 4
 217.958 419.085 164.715 459.817 164.715 525.42 c 4
283.56 525.42 m 29
65.6777 202.245 m 4
 65.6777 321.94 162.822 419.085 282.518 419.085 c 4
 402.213 419.085 499.357 321.94 499.357 202.245 c 4
 499.357 82.5488 402.213 -14.5947 282.518 -14.5947 c 4
 162.822 -14.5947 65.6777 82.5488 65.6777 202.245 c 4
163.673 202.245 m 4
 163.673 267.848 216.915 321.09 282.518 321.09 c 4
 348.12 321.09 401.362 267.848 401.362 202.245 c 4
 401.362 136.643 348.12 83.4004 282.518 83.4004 c 4
 216.915 83.4004 163.673 136.643 163.673 202.245 c 4
282.518 202.245 m 29
EndSplineSet
Fore
279 54 m 0
 368 54 443 115 443 201 c 1
 443 288 364 353 281 353 c 1
 193 353 121 287 121 201 c 0
 121 112 195 54 279 54 c 0
153 541 m 1
 153 467 210 418 281 418 c 1
 351 418 408 465 408 541 c 1
 408 605 364 662 280 662 c 1
 199 662 153 603 153 541 c 1
280 731 m 1
 403 731 481 651 481 541 c 1
 481 446 425 407 399 384 c 1
 437 355 516 299 516 201 c 1
 516 72 407 -15 279 -15 c 1
 151 -15 48 74 48 201 c 1
 48 295 120 355 161 384 c 1
 130 412 80 448 80 541 c 1
 80 648 158 731 280 731 c 1
EndSplineSet
EndChar
StartChar: nine
Encoding: 57 57 25
Width: 555
Flags: MW
DStem: 354 309 422 288 187 10 249 -27
Back
117.719 514.89 m 5
 117.719 451.893 166.675 396.171 236.647 396.171 c 5
 304.285 396.171 351.281 451.893 351.281 509.333 c 5
 351.281 581.162 296.987 630.838 233.395 630.838 c 5
 172.93 630.838 117.719 583.247 117.719 514.89 c 5
360.246 349.645 m 5
 331.39 310.112 277.18 296.07 236.647 296.07 c 5
 97.8701 296.07 16.8887 412.277 16.8887 513.963 c 5
 16.8887 634.33 113.508 731.282 233.395 731.282 c 4
 382.473 731.282 461.705 602.272 466.389 464.402 c 4
 467.5 431.674 465.463 396.234 460.66 351.812 c 5
EndSplineSet
Fore
136 514 m 1
 136 435 200 367 287 367 c 1
 374 367 433 439 433 512 c 1
 433 595 364 655 286 655 c 1
 196 655 136 583 136 514 c 1
354 309 m 1
 332 300 316 294 287 294 c 0
 166 294 67 390 67 514 c 1
 67 615 152 728 288 728 c 1
 418 727 502 619 502 513 c 1
 502 413 445 330 422 288 c 1
 249 -27 l 9
 187 10 l 17
 354 309 l 1
EndSplineSet
EndChar
StartChar: colon
Encoding: 58 58 26
Width: 193
Flags: W
HStem: -6 96<88.4254 101> 348 96<88.4254 101>
Fore
50 42 m 4
 50 68 72 90 98 90 c 4
 124 90 146 68 146 42 c 4
 146 16 124 -6 98 -6 c 4
 72 -6 50 16 50 42 c 4
50 396 m 4
 50 422 72 444 98 444 c 4
 124 444 146 422 146 396 c 4
 146 370 124 348 98 348 c 4
 72 348 50 370 50 396 c 4
EndSplineSet
EndChar
StartChar: less
Encoding: 60 60 28
Width: 412
Flags: W
DStem: 36 310 132 309 284 11 381 11 284 603 381 603 36 310 132 309
Fore
284 11 m 5
 36 310 l 5
 284 603 l 5
 381 603 l 5
 132 309 l 5
 381 11 l 5
 284 11 l 5
EndSplineSet
EndChar
StartChar: equal
Encoding: 61 61 29
Width: 443
Flags: W
HStem: 175 69<27 418> 354 69<27 418>
Fore
27 244 m 1
 418 244 l 1
 418 175 l 1
 27 175 l 1
 27 244 l 1
27 423 m 1
 418 423 l 1
 418 354 l 1
 27 354 l 1
 27 423 l 1
EndSplineSet
EndChar
StartChar: greater
Encoding: 62 62 30
Width: 418
Flags: W
DStem: 40 603 137 603 288 309 384 310 288 309 384 310 40 10 137 10
Fore
137 10 m 5
 40 10 l 5
 288 309 l 5
 40 603 l 5
 137 603 l 5
 384 310 l 5
 137 10 l 5
EndSplineSet
EndChar
StartChar: question
Encoding: 63 63 31
Width: 481
Flags: W
HStem: -6 96<216.425 236> 662 69<224 248>
VStem: 190 73<195 288> 375 73<534 544>
Back
129.27 533.76 m 0
 129.27 585.552 182.513 629.67 248.115 629.67 c 4
 313.718 629.67 366.96 585.552 366.96 533.76 c 0
 366.96 481.969 313.718 439.935 248.115 439.935 c 0
 182.513 439.935 129.27 481.969 129.27 533.76 c 0
25.0195 533.76 m 0
 25.0195 641.946 124.032 729.75 246.03 729.75 c 0
 368.027 729.75 467.04 641.946 467.04 533.76 c 0
 467.04 425.573 368.027 337.77 246.03 337.77 c 0
 124.032 337.77 25.0195 425.573 25.0195 533.76 c 0
EndSplineSet
Fore
178 42 m 0
 178 68 200 90 226 90 c 0
 252 90 274 68 274 42 c 0
 274 16 252 -6 226 -6 c 0
 200 -6 178 16 178 42 c 0
263 288 m 1
 263 195 l 1
 190 195 l 1
 190 290 l 0
 190 400 375 419 375 534 c 1
 375 613 321 662 237 662 c 1
 152 662 94 584 94 530 c 1
 23 542 l 1
 35 648 123 731 234 731 c 1
 346 731 448 665 448 536 c 1
 448 396 263 365 263 288 c 1
EndSplineSet
EndChar
StartChar: at
Encoding: 64 64 32
Width: 793
Flags: W
HStem: -17 62<388 400> 190 62<388 400> 204 63<617 624> 462 61<388 400> 668 62<388 400>
VStem: 15 62<334 368> 221 63<357 368> 485 61<357 368> 698 63<357 368>
Back
534.906 356.863 m 4
 534.906 402.268 571.756 439.116 617.16 439.116 c 4
 662.564 439.116 699.413 402.268 699.413 356.863 c 4
 699.413 311.459 662.564 274.61 617.16 274.61 c 4
 571.756 274.61 534.906 311.459 534.906 356.863 c 4
473.295 356.535 m 0
 473.295 435.948 537.746 500.4 617.16 500.4 c 0
 696.573 500.4 761.025 435.948 761.025 356.535 c 0
 761.025 277.121 696.573 212.67 617.16 212.67 c 0
 537.746 212.67 473.295 277.121 473.295 356.535 c 0
283.977 356.765 m 0
 283.977 413.998 331.035 461.056 388.269 461.056 c 0
 445.502 461.056 492.561 413.998 492.561 356.765 c 0
 492.561 299.531 445.502 252.473 388.269 252.473 c 0
 331.035 252.473 283.977 299.531 283.977 356.765 c 0
76.9365 356.603 m 0
 76.9365 528.693 215.72 667.477 387.81 667.477 c 0
 559.9 667.477 698.684 528.693 698.684 356.603 c 0
 698.684 184.512 559.9 45.7295 387.81 45.7295 c 0
 215.72 45.7295 76.9365 184.512 76.9365 356.603 c 0
14.5947 356.535 m 0
 14.5947 562.95 181.395 729.75 387.81 729.75 c 0
 594.225 729.75 761.025 562.95 761.025 356.535 c 0
 761.025 150.12 594.225 -16.6797 387.81 -16.6797 c 0
 181.395 -16.6797 14.5947 150.12 14.5947 356.535 c 0
221.01 356.535 m 0
 221.01 448.275 296.07 523.335 387.81 523.335 c 0
 479.55 523.335 554.61 448.275 554.61 356.535 c 0
 554.61 264.795 479.55 189.735 387.81 189.735 c 0
 296.07 189.735 221.01 264.795 221.01 356.535 c 0
EndSplineSet
Fore
569 104 m 1xbf80
 607 54 l 17
 545 9 470 -17 388 -17 c 0
 181 -17 15 150 15 357 c 0
 15 563 181 730 388 730 c 0
 594 730 761 563 761 357 c 0
 761 271 689 204 622 204 c 0xbf80
 586 204 543 225 517 253 c 1
 488 214 440 190 388 190 c 0xdf80
 296 190 221 265 221 357 c 0
 221 448 296 523 388 523 c 0
 480 523 546 444 546 357 c 0
 546 315 579 267 619 267 c 0
 660 267 698 306 698 357 c 0
 698 523 563 668 388 668 c 0
 213 668 77 523 77 355 c 0
 77 188 213 45 388 45 c 0
 450 45 522 71 569 104 c 1xbf80
284 357 m 0
 284 296 332 252 388 252 c 0xdf80
 448 252 485 300 485 357 c 0
 485 411 438 462 388 462 c 0
 334 462 284 415 284 357 c 0
EndSplineSet
EndChar
StartChar: A
Encoding: 65 65 0
Width: 636
Flags: MW
HStem: 247 56<219 442>
DStem: 288 711 191 247 32 0 109 0
Fore
317 613 m 1
 219 303 l 1
 413 303 l 1
 317 613 l 1
442 247 m 0
 191 247 l 0
 109 0 l 0
 32 0 l 1
 288 711 l 0
 346 711 l 17
 602 0 l 1
 523 0 l 1
 442 247 l 0
EndSplineSet
KernsSLIF: 86 -104 0 0 84 -48 0 0
EndChar
StartChar: B
Encoding: 66 66 1
Width: 580
Flags: HMW
HStem: 0 68<133 251> 345 69<133 197> 642 69<60 251>
VStem: 60 73<0 345 0 642> 425 68<530 551> 459 67<182 218>
Fore
133 345 m 1xf4
 133 68 l 1
 152 68 235 69 251 69 c 1
 432 69 459 146 459 210 c 0
 459 275 413 344 251 344 c 1
 238 344 149 345 133 345 c 1xf4
133 642 m 1
 133 414 l 1
 152 414 235 413 251 413 c 1
 409 413 420 492 420 530 c 1
 420 571 409 641 251 641 c 1
 236 641 151 642 133 642 c 1
60 711 m 1
 251 711 l 1
 463 711 488 596 488 530 c 1
 488 450 421 382 368 382 c 1
 488 382 525 265 525 207 c 1
 525 140 507 0 251 0 c 1
 60 0 l 1
 60 711 l 1
EndSplineSet
EndChar
StartChar: C
Encoding: 67 67 2
Width: 616
Flags: W
HStem: -15 69<337 352> 661 69<338 352>
VStem: 47 73<354 370>
Fore
555 108 m 0
 508 36 449 -15 337 -15 c 1
 138 -15 47 173 47 354 c 1
 47 540 133 730 338 730 c 0
 447 730 505 684 549 615 c 9
 525 603 487 583 487 583 c 0
 458 624 396 661 338 661 c 1
 194 661 120 507 120 354 c 1
 120 202 204 54 337 54 c 1
 407 54 448 77 491 144 c 9
 516 130 555 108 555 108 c 0
EndSplineSet
EndChar
StartChar: D
Encoding: 68 68 3
Width: 598
Flags: HMW
HStem: 642 69<58 260>
VStem: 58 73<0 642> 464 73<355 385>
Fore
484 355 m 1
 484 525 389 642 263 642 c 1
 131 642 l 1
 131 70 l 1
 263 70 l 1
 389 70 484 186 484 355 c 1
557 355 m 1
 557 156 439 0 263 0 c 0
 130 0 l 1
 58 0 l 1
 58 711 l 1
 263 711 l 1
 442 711 557 555 557 355 c 1
EndSplineSet
EndChar
StartChar: E
Encoding: 69 69 4
Width: 562
Flags: W
HStem: 0 69<131 506> 330 69<131 495> 642 69<58 506>
VStem: 58 73<0 330 0 642>
Fore
58 711 m 0
 506 711 l 1
 506 642 l 0
 131 642 l 0
 131 399 l 1
 495 399 l 1
 495 330 l 0
 131 330 l 0
 131 69 l 0
 506 69 l 0
 506 0 l 0
 58 0 l 1
 58 711 l 0
EndSplineSet
KernsSLIF: 82 20 0 0
EndChar
StartChar: F
Encoding: 70 70 5
Width: 562
Flags: HMW
HStem: 330 69<131 506> 642 69<58 506>
VStem: 58 73<0 330 0 642>
Fore
58 711 m 1
 506 711 l 1
 506 642 l 25
 131 642 l 25
 131 399 l 1
 495 399 l 1
 495 330 l 25
 131 330 l 1
 131 0 l 1
 58 0 l 1
 58 711 l 1
EndSplineSet
EndChar
StartChar: G
Encoding: 71 71 6
Width: 666
Flags: W
HStem: -14 68<337 352> 301 69<333 523> 661 69<338 352>
VStem: 47 73<357 372> 523 78<299 328>
Fore
337 -14 m 0
 123 -14 47 190 47 357 c 1
 47 523 123 730 338 730 c 0
 447 730 505 684 549 615 c 9
 525.21 602.13 488 582 488 582 c 0
 458 623 396 661 338 661 c 1
 192 661 120 490 120 357 c 1
 120 223 192 54 337 54 c 0
 490 54 523 210 523 301 c 5
 333 301 l 5
 333 370 l 5
 601 370 l 5
 601 328 l 5
 601 174 536 -14 337 -14 c 0
EndSplineSet
KernsSLIF: 84 -33 0 0
EndChar
StartChar: H
Encoding: 72 72 7
Width: 590
Flags: HMW
HStem: 329 69<131 458>
VStem: 58 73<0 329 0 711> 458 73<0 711>
Fore
58 711 m 0
 131 711 l 1
 131 398 l 1
 458 398 l 1
 458 711 l 1
 531 711 l 1
 531 0 l 1
 458 0 l 1
 458 329 l 0
 131 329 l 1
 131 0 l 1
 58 0 l 1
 58 711 l 0
EndSplineSet
EndChar
StartChar: I
Encoding: 73 73 8
Width: 327
Flags: W
HStem: 0 69<48 281> 642 69<48 128 48 281>
VStem: 128 73<69 642>
Fore
48 0 m 1
 48 69 l 1
 128 69 l 5
 128 642 l 5
 48 642 l 1
 48 711 l 1
 281 711 l 1
 281 642 l 1
 201 642 l 1
 201 69 l 1
 281 69 l 1
 281 0 l 1
 48 0 l 1
EndSplineSet
EndChar
StartChar: J
Encoding: 74 74 9
Width: 605
Flags: W
HStem: -10 73<281 285> 691 20G<432 504>
VStem: 432 72<261 711>
Fore
60 261 m 0
 129 261 l 1
 129 165 188 63 281 63 c 1
 375 63 432 163 432 261 c 2
 432 711 l 1
 504 711 l 1
 504 261 l 2
 504 102 415 -10 281 -10 c 1
 148 -10 60 108 60 261 c 0
EndSplineSet
EndChar
StartChar: K
Encoding: 75 75 10
Width: 607
Flags: MW
VStem: 58 73<0 269 0 711>
DStem: 182 321 236 368 491 0 586 0 479 711 570 711 131 365 236 368
Fore
58 711 m 0
 131 711 l 1
 131 365 l 1
 479 711 l 1
 570 711 l 1
 236 368 l 1
 586 0 l 1
 491 0 l 1
 182 321 l 1
 131 269 l 1
 131 0 l 1
 58 0 l 1
 58 711 l 0
EndSplineSet
EndChar
StartChar: L
Encoding: 76 76 11
Width: 552
Flags: W
HStem: 0 69<130 507> 691 20G<58 131>
VStem: 58 73<0 711>
Fore
58 711 m 1
 131 711 l 1
 131 69 l 1
 507 69 l 1
 507 0 l 1
 58 0 l 1
 58 711 l 1
EndSplineSet
EndChar
StartChar: M
Encoding: 77 77 1
Width: 715
Flags: MW
VStem: 34 73<0 591> 611 74<0 711>
DStem: 107 591 137 711 316 8 361 102 586 711 611 591 361 102 403 8
Fore
34 0 m 1
 34 711 l 2
 137 711 l 1
 361 102 l 2
 586 711 l 1
 685 711 l 1
 685 0 l 1
 611 0 l 25
 611 591 l 1
 403 8 l 0
 316 8 l 1
 107 591 l 0
 107 0 l 1
 34 0 l 1
EndSplineSet
EndChar
StartChar: N
Encoding: 78 78 2
Width: 631
Flags: MW
VStem: 58 74<0 581> 498 73<144 711>
DStem: 132 581 133 711 500 0 498 144
Fore
58 0 m 1
 58 711 l 2
 133 711 l 1
 498 144 l 25
 498 711 l 1
 571 711 l 1
 571 0 l 0
 500 0 l 1
 132 581 l 0
 132 0 l 1
 58 0 l 1
EndSplineSet
EndChar
StartChar: O
Encoding: 79 79 3
Width: 652
Flags: W
HStem: -15 69<328 335> 661 69<328 335>
VStem: 46 73<354 386> 538 73<354 386>
Fore
538 354 m 4
 538 486 486 661 328 661 c 4
 171 661 119 486 119 354 c 5
 119 223 172 54 328 54 c 5
 485 54 538 223 538 354 c 4
46 354 m 5
 46 511 119 730 328 730 c 5
 538 730 611 511 611 354 c 5
 611 198 537 -15 328 -15 c 5
 120 -15 46 198 46 354 c 5
EndSplineSet
KernsSLIF: 65 -48 0 0 84 -55 0 0
EndChar
StartChar: P
Encoding: 80 80 4
Width: 543
Flags: MW
HStem: 308 70<134 238> 642 69<134 238>
VStem: 61 73<0 308 0 642> 429 73<511 529>
Fore
134 378 m 5
 207 378 l 5
 367 378 429 427 429 511 c 5
 429 594 367 642 207 642 c 5
 134 642 l 5
 134 378 l 5
61 711 m 4
 134 711 l 5
 207 711 l 5
 390 711 502 636 502 511 c 4
 502 388 390 308 207 308 c 5
 134 308 l 5
 134 0 l 5
 61 0 l 5
 61 711 l 4
EndSplineSet
EndChar
StartChar: Q
Encoding: 81 81 5
Width: 670
Flags: W
HStem: -15 69<315 349> 661 69<315 344>
VStem: 44 73<354 385> 540 73<354 385>
DStem: 342 161 384 217 436 90 485 142 494 47 542 100 580 -16 620 41
Back
621.604 40.8271 m 5
 579.351 -16.0967 l 5
 341.614 160.365 l 5
 383.866 217.288 l 5
 621.604 40.8271 l 5
537.93 354.45 m 0
 537.93 485.805 485.805 660.945 328.388 660.945 c 0
 170.97 660.945 118.845 485.805 118.845 354.45 c 1
 118.845 223.095 172.013 54.21 328.388 54.21 c 1
 484.763 54.21 537.93 223.095 537.93 354.45 c 0
45.8701 354.45 m 1
 45.8701 510.825 118.845 729.75 328.388 729.75 c 1
 537.93 729.75 610.905 510.825 610.905 354.45 c 1
 610.905 198.075 536.888 -14.5947 328.388 -14.5947 c 1
 119.888 -14.5947 45.8701 198.075 45.8701 354.45 c 1
EndSplineSet
Fore
540 354 m 1
 540 496 480 661 325 661 c 1
 190 661 117 511 117 354 c 1
 117 234 167 54 334 54 c 1
 367 54 414 70 436 90 c 1
 342 161 l 1
 384 217 l 1
 485 142 l 1
 515 188 540 288 540 354 c 1
44 354 m 1
 44 511 121 730 326 730 c 1
 537 730 613 511 613 354 c 1
 613 262 579 156 542 100 c 1
 620 41 l 1
 580 -16 l 1
 494 47 l 1
 453 14 411 -15 332 -15 c 1
 119 -15 44 196 44 354 c 1
EndSplineSet
EndChar
StartChar: R
Encoding: 82 82 6
Width: 543
Flags: MW
HStem: 308 70<134 207> 642 69<134 238>
VStem: 61 73<0 308 0 642> 429 73<511 529>
DStem: 207 308 289 314 454.457 0 537.237 0
Back
134 378 m 5
 207 378 l 5
 367 378 429 427 429 511 c 5
 429 594 367 642 207 642 c 5
 134 642 l 5
 134 378 l 5
61 711 m 4
 134 711 l 5
 207 711 l 5
 390 711 502 636 502 511 c 4
 502 388 390 308 207 308 c 5
 134 308 l 5
 134 0 l 5
 61 0 l 5
 61 711 l 4
EndSplineSet
Fore
134 378 m 1
 207 378 l 1
 367 378 429 427 429 511 c 1
 429 594 367 642 207 642 c 1
 134 642 l 1
 134 378 l 1
454.457 0 m 1
 207 308 l 1
 134 308 l 1
 134 0 l 1
 61 0 l 1
 61 711 l 0
 134 711 l 1
 207 711 l 1
 390 711 502 636 502 511 c 0
 502 416.984 433 336 289 314 c 1
 537.237 0 l 1
 454.457 0 l 1
EndSplineSet
EndChar
StartChar: S
Encoding: 83 83 7
Width: 567
Flags: MW
Fore
43 142 m 1
 105 181 l 1
 149 113 198 54 293 54 c 1
 382 54 457 117 457 194 c 1
 457 273 379 317 260 348 c 0
 173 371 60 409 60 535 c 1
 60 651 167 730 281 730 c 1
 400 730 456 678 502 610 c 1
 445 571 l 1
 416 621 357 661 279 661 c 1
 204 661 129 619 129 535 c 1
 129 436 249 424 314 402 c 0
 413 369 525 325 525 194 c 1
 525 77 417 -15 293 -15 c 1
 186 -15 108 40 43 142 c 1
EndSplineSet
EndChar
StartChar: T
Encoding: 84 84 8
Width: 607
Flags: HMW
HStem: 638 73<38 275 38 571>
VStem: 275 69<0 638>
Fore
38 711 m 0
 571 711 l 1
 571 638 l 0
 344 638 l 1
 344 0 l 1
 275 0 l 1
 275 638 l 1
 38 638 l 1
 38 711 l 0
EndSplineSet
KernsSLIF: 65 -54 0 0
EndChar
StartChar: U
Encoding: 85 85 9
Width: 634
Flags: W
HStem: -15 69<309 315> 691 20G<58 131 491 564>
VStem: 58 73<323 711> 491 73<0 711>
Fore
491 711 m 1
 564 711 l 1
 564 0 l 1
 491 0 l 1
 491 88 l 5
 476 68 440 -14 309 -15 c 1
 150 -15 58 119 58 323 c 1
 58 711 l 1
 131 711 l 1
 131 323 l 1
 131 138 221 54 309 54 c 1
 404 54 490 136 491 325 c 1
 491 711 l 1
EndSplineSet
EndChar
StartChar: V
Encoding: 86 86 10
Width: 629
Flags: MW
DStem: 36 711 115 711 254 0 305 78 496 711 572 711 305 78 357 0
Fore
496 711 m 1
 572 711 l 1
 357 0 l 1
 254 0 l 1
 36 711 l 1
 115 711 l 1
 305 78 l 1
 496 711 l 1
EndSplineSet
KernsSLIF: 65 -119 0 0 69 -34 0 0
EndChar
StartChar: W
Encoding: 87 87 11
Width: 770
Flags: MW
DStem: 38 711 111 711 149 0 204 114 343 693 386 581 204 114 254 0 386 581 428 693 518 0 567 114 660 711 733 711 567 114 621 0
Fore
38 711 m 1
 111 711 l 1
 204 114 l 0
 343 693 l 1
 428 693 l 0
 567 114 l 1
 660 711 l 25
 733 711 l 1
 621 0 l 1
 518 0 l 1
 386 581 l 2
 254 0 l 1
 149 0 l 2
 38 711 l 1
EndSplineSet
KernsSLIF: 65 -27 0 0
EndChar
StartChar: X
Encoding: 88 88 12
Width: 603
Flags: MW
DStem: 36 711 125 711 259 365 303 428 259 365 301 291 39 0 126 0 301 291 347 365 474 0 567 0 475 711 564 711 303 428 347 365
Fore
36 711 m 0
 125 711 l 1
 303 428 l 1
 475 711 l 1
 564 711 l 1
 347 365 l 1
 567 0 l 1
 474 0 l 1
 301 291 l 1
 126 0 l 1
 39 0 l 1
 259 365 l 1
 36 711 l 0
EndSplineSet
EndChar
StartChar: Y
Encoding: 89 89 13
Width: 586
Flags: MW
VStem: 251 69<0 365>
DStem: 34 711 114 711 251 365 288 418
Fore
34 711 m 1
 114 711 l 1
 288 418 l 1
 474 711 l 1
 554 711 l 1
 320 365 l 1
 320 0 l 1
 251 0 l 1
 251 365 l 1
 34 711 l 1
EndSplineSet
KernsSLIF: 97 -62 0 0
EndChar
StartChar: Z
Encoding: 90 90 14
Width: 658
Flags: W
HStem: 0 69<173 603> 642 69<58 472>
DStem: 472 642 595 711 46 0 173 69
Fore
58 711 m 1
 595 711 l 1
 173 69 l 1
 603 69 l 1
 603 0 l 1
 46 0 l 1
 472 642 l 1
 58 642 l 1
 58 711 l 1
EndSplineSet
EndChar
StartChar: bracketleft
Encoding: 91 91 15
Width: 306
Flags: W
HStem: -11 68<132 252> 687 69<59 252>
VStem: 59 73<-11 687>
Fore
252 -11 m 0
 59 -11 l 1
 59 756 l 0
 252 756 l 1
 252 687 l 1
 132 687 l 1
 132 57 l 1
 252 57 l 1
 252 -11 l 0
EndSplineSet
EndChar
StartChar: backslash
Encoding: 92 92 16
Width: 436
Flags: MWO
DStem: 1 754 85 754 352 0 435 0
Fore
352 0 m 1
 1 754 l 1
 85 754 l 0
 435 0 l 1
 352 0 l 1
EndSplineSet
EndChar
StartChar: bracketright
Encoding: 93 93 17
Width: 312
Flags: W
HStem: -15 69<58 251> 684 69<58 178>
VStem: 178 73<54 753>
Fore
58 -15 m 0
 58 54 l 1
 178 54 l 1
 178 684 l 1
 58 684 l 1
 58 753 l 1
 251 753 l 0
 251 -15 l 1
 58 -15 l 0
EndSplineSet
EndChar
StartChar: asciicircum
Encoding: 94 94 18
Width: 453
Flags: MW
DStem: 195 729 228 665 60 562 151 562
Fore
396 561 m 1
 304 561 l 1
 228 665 l 1
 151 562 l 0
 60 562 l 1
 195 729 l 1
 259 729 l 1
 396 561 l 1
EndSplineSet
EndChar
StartChar: underscore
Encoding: 95 95 19
Width: 606
Flags: W
HStem: -113 69<38 570>
Fore
38 -113 m 1
 38 -44 l 1
 570 -44 l 1
 570 -113 l 1
 38 -113 l 1
EndSplineSet
EndChar
StartChar: grave
Encoding: 96 96 20
Width: 252
Flags: W
DStem: 47 759 124 759 132 635 211 635
Fore
211 635 m 1
 132 635 l 2
 47 759 l 2
 124 759 l 1
 211 635 l 1
EndSplineSet
EndChar
StartChar: a
Encoding: 97 97 21
Width: 485
Flags: W
HStem: -14 66<228 232> 294 66<228 232> 466 66<230 247>
VStem: 38 70<173 179> 348 67<161 270>
Back
70 720 m 29
 70 -26 l 29
210 716 m 29
 210 -30 l 29
140 -34 m 29
 140 712 l 29
 140 -34 l 29
280 718 m 29
 280 -28 l 29
350 716 m 29
 350 -30 l 29
420 -24 m 29
 420 722 l 29
 420 -24 l 29
70 720 m 29
 70 -26 l 29
210 716 m 29
 210 -30 l 29
140 -34 m 29
 140 712 l 29
 140 -34 l 29
280 718 m 29
 280 -28 l 29
350 716 m 29
 350 -30 l 29
420 -24 m 29
 420 722 l 29
 420 -24 l 29
70 720 m 29
 70 -26 l 29
210 716 m 29
 210 -30 l 29
140 -34 m 29
 140 712 l 29
 140 -34 l 29
280 718 m 29
 280 -28 l 29
350 716 m 29
 350 -30 l 29
420 -24 m 29
 420 722 l 29
 420 -24 l 29
70 720 m 29
 70 -26 l 29
210 716 m 29
 210 -30 l 29
140 -34 m 29
 140 712 l 29
 140 -34 l 29
280 718 m 29
 280 -28 l 29
350 716 m 29
 350 -30 l 29
420 -24 m 29
 420 722 l 29
 420 -24 l 29
70 720 m 29
 70 -26 l 29
210 716 m 29
 210 -30 l 29
140 -34 m 29
 140 712 l 29
 140 -34 l 29
280 718 m 29
 280 -28 l 29
350 716 m 29
 350 -30 l 29
420 -24 m 29
 420 722 l 29
 420 -24 l 29
70 720 m 29
 70 -26 l 29
210 716 m 29
 210 -30 l 29
140 -34 m 29
 140 712 l 29
 140 -34 l 29
280 718 m 29
 280 -28 l 29
350 716 m 29
 350 -30 l 29
420 -24 m 29
 420 722 l 29
 420 -24 l 29
70 720 m 29
 70 -26 l 29
210 716 m 29
 210 -30 l 29
140 -34 m 29
 140 712 l 29
 140 -34 l 29
280 718 m 29
 280 -28 l 29
350 716 m 29
 350 -30 l 29
420 -24 m 29
 420 722 l 29
 420 -24 l 29
70 720 m 29
 70 -26 l 29
210 716 m 29
 210 -30 l 29
140 -34 m 29
 140 712 l 29
 140 -34 l 29
280 718 m 29
 280 -28 l 29
350 716 m 29
 350 -30 l 29
420 -24 m 29
 420 722 l 29
 420 -24 l 29
70 720 m 29
 70 -26 l 29
210 716 m 29
 210 -30 l 29
140 -34 m 29
 140 712 l 29
 140 -34 l 29
280 718 m 29
 280 -28 l 29
350 716 m 29
 350 -30 l 29
420 -24 m 29
 420 722 l 29
 420 -24 l 29
70 720 m 29
 70 -26 l 29
210 716 m 29
 210 -30 l 29
140 -34 m 29
 140 712 l 29
 140 -34 l 29
280 718 m 29
 280 -28 l 29
350 716 m 29
 350 -30 l 29
420 -24 m 29
 420 722 l 29
 420 -24 l 29
70 720 m 29
 70 -26 l 29
210 716 m 29
 210 -30 l 29
140 -34 m 29
 140 712 l 29
 140 -34 l 29
280 718 m 29
 280 -28 l 29
350 716 m 29
 350 -30 l 29
420 -24 m 29
 420 722 l 29
 420 -24 l 29
70 720 m 29
 70 -26 l 29
210 716 m 29
 210 -30 l 29
140 -34 m 29
 140 712 l 29
 140 -34 l 29
280 718 m 29
 280 -28 l 29
350 716 m 29
 350 -30 l 29
420 -24 m 29
 420 722 l 29
 420 -24 l 29
70 720 m 29
 70 -26 l 29
210 716 m 29
 210 -30 l 29
140 -34 m 29
 140 712 l 29
 140 -34 l 29
280 718 m 29
 280 -28 l 29
350 716 m 29
 350 -30 l 29
420 -24 m 29
 420 722 l 29
 420 -24 l 29
70 720 m 29
 70 -26 l 29
210 716 m 29
 210 -30 l 29
140 -34 m 29
 140 712 l 29
 140 -34 l 29
280 718 m 29
 280 -28 l 29
350 716 m 29
 350 -30 l 29
420 -24 m 29
 420 722 l 29
 420 -24 l 29
70 720 m 29
 70 -26 l 29
210 716 m 29
 210 -30 l 29
140 -34 m 29
 140 712 l 29
 140 -34 l 29
280 718 m 29
 280 -28 l 29
350 716 m 29
 350 -30 l 29
420 -24 m 29
 420 722 l 29
 420 -24 l 29
70 720 m 29
 70 -26 l 29
210 716 m 29
 210 -30 l 29
140 -34 m 29
 140 712 l 29
 140 -34 l 29
280 718 m 29
 280 -28 l 29
350 716 m 29
 350 -30 l 29
420 -24 m 29
 420 722 l 29
 420 -24 l 29
70 720 m 25
 70 -26 l 25
210 716 m 25
 210 -30 l 25
140 -34 m 25
 140 712 l 25
 140 -34 l 25
280 718 m 25
 280 -28 l 25
350 716 m 25
 350 -30 l 25
420 -24 m 25
 420 722 l 25
 420 -24 l 25
70 720 m 25
 70 -26 l 25
210 716 m 25
 210 -30 l 25
140 -34 m 25
 140 712 l 25
 140 -34 l 25
280 718 m 25
 280 -28 l 25
350 716 m 25
 350 -30 l 25
420 -24 m 25
 420 722 l 25
 420 -24 l 25
70 720 m 25
 70 -26 l 25
210 716 m 25
 210 -30 l 25
140 -34 m 25
 140 712 l 25
 140 -34 l 25
280 718 m 25
 280 -28 l 25
350 716 m 25
 350 -30 l 25
420 -24 m 25
 420 722 l 25
 420 -24 l 25
70 720 m 25
 70 -26 l 25
210 716 m 25
 210 -30 l 25
140 -34 m 25
 140 712 l 25
 140 -34 l 25
280 718 m 25
 280 -28 l 25
350 716 m 25
 350 -30 l 25
420 -24 m 25
 420 722 l 25
 420 -24 l 25
70 720 m 25
 70 -26 l 25
210 716 m 25
 210 -30 l 25
140 -34 m 25
 140 712 l 25
 140 -34 l 25
280 718 m 25
 280 -28 l 25
350 716 m 25
 350 -30 l 25
420 -24 m 25
 420 722 l 25
 420 -24 l 25
70 720 m 25
 70 -26 l 25
210 716 m 25
 210 -30 l 25
140 -34 m 25
 140 712 l 25
 140 -34 l 25
280 718 m 25
 280 -28 l 25
350 716 m 25
 350 -30 l 25
420 -24 m 25
 420 722 l 25
 420 -24 l 25
70 720 m 25
 70 -26 l 25
210 716 m 25
 210 -30 l 25
140 -34 m 25
 140 712 l 25
 140 -34 l 25
280 718 m 25
 280 -28 l 25
350 716 m 25
 350 -30 l 25
420 -24 m 25
 420 722 l 25
 420 -24 l 25
70 720 m 25
 70 -26 l 25
210 716 m 25
 210 -30 l 25
140 -34 m 25
 140 712 l 25
 140 -34 l 25
280 718 m 25
 280 -28 l 25
350 716 m 25
 350 -30 l 25
420 -24 m 25
 420 722 l 25
 420 -24 l 25
70 720 m 25
 70 -26 l 25
210 716 m 25
 210 -30 l 25
140 -34 m 25
 140 712 l 25
 140 -34 l 25
280 718 m 25
 280 -28 l 25
350 716 m 25
 350 -30 l 25
420 -24 m 25
 420 722 l 25
 420 -24 l 25
70 720 m 25
 70 -26 l 25
210 716 m 25
 210 -30 l 25
140 -34 m 25
 140 712 l 25
 140 -34 l 25
280 718 m 25
 280 -28 l 25
350 716 m 25
 350 -30 l 25
420 -24 m 25
 420 722 l 25
 420 -24 l 25
70 720 m 25
 70 -26 l 25
210 716 m 25
 210 -30 l 25
140 -34 m 25
 140 712 l 25
 140 -34 l 25
280 718 m 25
 280 -28 l 25
350 716 m 25
 350 -30 l 25
420 -24 m 25
 420 722 l 25
 420 -24 l 25
70 720 m 25
 70 -26 l 25
210 716 m 25
 210 -30 l 25
140 -34 m 25
 140 712 l 25
 140 -34 l 25
280 718 m 25
 280 -28 l 25
350 716 m 25
 350 -30 l 25
420 -24 m 25
 420 722 l 25
 420 -24 l 25
70 720 m 25
 70 -26 l 25
210 716 m 25
 210 -30 l 25
140 -34 m 25
 140 712 l 25
 140 -34 l 25
280 718 m 25
 280 -28 l 25
350 716 m 25
 350 -30 l 25
420 -24 m 25
 420 722 l 25
 420 -24 l 25
70 720 m 25
 70 -26 l 25
210 716 m 25
 210 -30 l 25
140 -34 m 25
 140 712 l 25
 140 -34 l 25
280 718 m 25
 280 -28 l 25
350 716 m 25
 350 -30 l 25
420 -24 m 25
 420 722 l 25
 420 -24 l 25
70 720 m 25
 70 -26 l 25
210 716 m 25
 210 -30 l 25
140 -34 m 25
 140 712 l 25
 140 -34 l 25
280 718 m 25
 280 -28 l 25
350 716 m 25
 350 -30 l 25
420 -24 m 25
 420 722 l 25
 420 -24 l 25
70 720 m 25
 70 -26 l 25
210 716 m 25
 210 -30 l 25
140 -34 m 25
 140 712 l 25
 140 -34 l 25
280 718 m 25
 280 -28 l 25
350 716 m 25
 350 -30 l 25
420 -24 m 25
 420 722 l 25
 420 -24 l 25
EndSplineSet
Fore
228 294 m 4
 154 294 108 236 108 173 c 4
 108 110 154 52 228 52 c 4
 290 52 348 108 348 173 c 5
 348 238 290 294 228 294 c 4
228 360 m 4
 296 360 336 332 350 308 c 5
 349.439 330 l 4
 349.439 405 304 466 230 466 c 4
 184 466 142 450 120 428 c 13
 105.18 447.5 82 478 82 478 c 4
 116 506 160 532 230 532 c 4
 326.845 532 415.868 461 415.868 330 c 4
 415 270 l 4
 416 132 l 5
 416 96 430 56 472 56 c 5
 472 -10 l 5
 412 -10 373 4 364 49 c 5
 350 26 308 -14 228 -14 c 5
 118 -14 38 68 38 173 c 4
 38 278 128 360 228 360 c 4
EndSplineSet
KernsSLIF: 118 -60 0 0
EndChar
StartChar: b
Encoding: 98 98 22
Width: 490
Flags: W
HStem: -14 66<248 269> 467 66<267 285> 690 20G<60 130>
VStem: 60 70<0 58 0 275 0 710> 379 70<241 291>
Back
70 720 m 29
 70 -26 l 29
210 716 m 29
 210 -30 l 29
140 -34 m 29
 140 712 l 29
 140 -34 l 29
280 718 m 29
 280 -28 l 29
350 716 m 29
 350 -30 l 29
420 -24 m 29
 420 722 l 29
 420 -24 l 29
EndSplineSet
Fore
130 0 m 21
 60 0 l 5
 60 710 l 5
 130 710 l 5
 130 449 l 21
 162 495 198 533 269 533 c 4
 392 533 449 402 449 264 c 4
 449 126 408 -14 250 -14 c 5
 170 -14 130 58 130 58 c 4
 130 58 130 22.6201 130 0 c 21
379 262 m 4
 379 376 336 467 274 467 c 5
 206 467 128 388 128 262 c 5
 128 120 200 52 255 52 c 4
 328 52 379 128 379 262 c 4
EndSplineSet
EndChar
StartChar: c
Encoding: 99 99 23
Width: 455
Flags: W
HStem: -15 66<244 253> 468 66<244 253>
VStem: 44 70<262 274>
Back
70 720 m 29
 70 -26 l 29
210 716 m 29
 210 -30 l 29
140 -34 m 29
 140 712 l 29
 140 -34 l 29
280 718 m 29
 280 -28 l 29
350 716 m 29
 350 -30 l 29
420 -24 m 29
 420 722 l 29
 420 -24 l 29
EndSplineSet
Fore
408 469 m 13
 389.67 450.67 361 422 361 422 c 4
 333 450 302 468 244 468 c 5
 175 468 114 364 114 262 c 4
 114 158 164 51 244 51 c 4
 306 51 340 76 363 105 c 13
 410 58 l 5
 384 30 340 -14 244 -15 c 5
 118 -14 44 102 44 262 c 4
 44 422 132 534 244 534 c 4
 322 534 362 514 408 469 c 13
EndSplineSet
EndChar
StartChar: d
Encoding: 100 100 24
Width: 501
Flags: W
HStem: -14 66<220 242> 467 66<214 223> 690 20G<360 430>
VStem: 41 70<241 291> 360 70<0 58 241 710>
Back
70 720 m 29
 70 -26 l 29
210 716 m 29
 210 -30 l 29
140 -34 m 29
 140 712 l 29
 140 -34 l 29
280 718 m 29
 280 -28 l 29
350 716 m 29
 350 -30 l 29
420 -24 m 29
 420 722 l 29
 420 -24 l 29
EndSplineSet
Fore
360 0 m 13
 360 22.6201 360 58 360 58 c 4
 360 58 320 -14 240 -14 c 5
 82 -14 41 126 41 264 c 4
 41 402 98 533 221 533 c 4
 292 533 328 495 360 449 c 13
 360 710 l 5
 430 710 l 5
 430 0 l 5
 360 0 l 13
111 262 m 4
 111 128 162 52 235 52 c 4
 290 52 362 120 362 262 c 5
 362 388 284 467 216 467 c 5
 154 467 111 376 111 262 c 4
EndSplineSet
EndChar
StartChar: e
Encoding: 101 101 25
Width: 495
Flags: W
HStem: -14 66<248 256> 229 66<118 447> 468 66<248 256>
Back
70 720 m 25
 70 -26 l 25
210 716 m 25
 210 -30 l 25
140 -34 m 25
 140 712 l 25
 140 -34 l 25
280 718 m 25
 280 -28 l 25
350 716 m 25
 350 -30 l 25
420 -24 m 25
 420 722 l 25
 420 -24 l 25
EndSplineSet
Fore
118.656 295 m 5
 377.344 295 l 5
 368.672 381.516 326.031 468 248 468 c 4
 169.969 468 127.328 381.516 118.656 295 c 5
118.641 229 m 5
 127.281 141.719 169.938 52 248 52 c 4
 294.016 52 326.375 79.3281 347.422 118.484 c 4
 412.344 91.6094 l 4
 378.984 27.0625 323.422 -14 248 -14 c 5
 118 -14 47 108 47 262 c 4
 47 416 118 534 248 534 c 4
 378 534 449 416 449 262 c 4
 449 251.24 448.458 240.156 447.469 229 c 5
 118.641 229 l 5
EndSplineSet
KernsSLIF: 116 -26 0 0
EndChar
StartChar: f
Encoding: 102 102 26
Width: 350
Flags: HMWO
HStem: 458 66<56 126 196 294> 657 66<261 270>
VStem: 126 70<0 458 524 577 524 681>
Back
196 458 m 4
 196 0 l 5
 126 0 l 5
 126 458 l 4
 56 458 l 5
 56 524 l 5
 126 524 l 4
 126 681 l 5
 196 681 l 13
 196 662 l 5
 218 710 230 723 263 723 c 5
 309 723 319 710 348 693 c 13
 301 646 l 21
 284 654 282 657 268 657 c 4
 213 657 196 626 196 557 c 5
 196 524 l 4
 294 524 l 5
 294 458 l 5
 196 458 l 4
70 720 m 25
 70 -26 l 25
210 716 m 25
 210 -30 l 25
140 -34 m 25
 140 712 l 25
 140 -34 l 25
280 718 m 25
 280 -28 l 25
350 716 m 25
 350 -30 l 25
420 -24 m 25
 420 722 l 25
 420 -24 l 25
EndSplineSet
Fore
196 458 m 0
 196 0 l 1
 126 0 l 1
 126 458 l 0
 56 458 l 1
 56 524 l 1
 126 524 l 0
 126 578 l 1
 126 674 180 723 263 723 c 0
 304 723 319 710 348 693 c 9
 301 646 l 17
 284 654 282 657 268 657 c 0
 220 657 196 629 196 578 c 1
 196 524 l 0
 294 524 l 1
 294 458 l 1
 196 458 l 0
EndSplineSet
KernsSLIF: 97 -39 0 0 110 -33 0 0 121 -20 0 0 116 -1 0 0 117 -40 0 0 111 -20 0 0
EndChar
StartChar: g
Encoding: 103 103 27
Width: 470
Flags: W
HStem: -219 66<236 254> -13 66<224 250> 468 66<218 227>
VStem: 45 70<244 278> 364 70<-28 59 244 524>
Back
490 -24 m 25
 490 722 l 25
 490 -24 l 25
70 720 m 25
 70 -26 l 25
210 716 m 25
 210 -30 l 25
140 -34 m 25
 140 712 l 25
 140 -34 l 25
280 718 m 25
 280 -28 l 25
350 716 m 25
 350 -30 l 25
420 -24 m 25
 420 722 l 25
 420 -24 l 25
EndSplineSet
Fore
115 263 m 0
 115 129 166 53 239 53 c 0
 294 53 366 121 366 263 c 1
 366 389 288 468 220 468 c 1
 158 468 115 377 115 263 c 0
364 59 m 1
 364 59 324 -13 244 -13 c 1
 86 -13 45 127 45 265 c 0
 45 403 102 534 225 534 c 0
 296 534 332 496 364 450 c 9
 364 524 l 1
 434 524 l 1
 434 -9 l 2
 434 -142 347 -219 248 -219 c 1
 119 -219 63 -119 55 -53 c 0
 55 -53 97.7002 -53 125 -53 c 17
 134 -111 186 -153 244 -153 c 0
 305 -153 364 -110 364 -16 c 0
 364 59 l 1
EndSplineSet
EndChar
StartChar: h
Encoding: 104 104 28
Width: 500
Flags: MW
HStem: 468 67<267 285> 690 20G<60 130>
VStem: 60 70<0 337 319 710> 370 70<0 325>
Back
490 -24 m 25
 490 722 l 25
 490 -24 l 25
70 720 m 25
 70 -26 l 25
210 716 m 25
 210 -30 l 25
140 -34 m 25
 140 712 l 25
 140 -34 l 25
280 718 m 25
 280 -28 l 25
350 716 m 25
 350 -30 l 25
420 -24 m 25
 420 722 l 25
 420 -24 l 25
EndSplineSet
Fore
130 0 m 13
 60 0 l 5
 60 319 l 5
 60 710 l 5
 130 710 l 5
 130 460 l 21
 167 493 204 535 275 535 c 4
 400 535 440 430 440 304 c 4
 440 0 l 5
 370 0 l 4
 370 302 l 4
 370 386 334 468 280 468 c 5
 218 468 130 406 130 322 c 4
 130 0 l 13
EndSplineSet
EndChar
StartChar: i
Encoding: 105 105 29
Width: 210
Flags: MW
HStem: 594 92<95.5963 108>
VStem: 70 70<0 524>
Back
70 720 m 25
 70 -26 l 25
210 716 m 25
 210 -30 l 25
140 -34 m 25
 140 712 l 25
 140 -34 l 25
280 718 m 25
 280 -28 l 25
350 716 m 25
 350 -30 l 25
420 -24 m 25
 420 722 l 25
 420 -24 l 25
EndSplineSet
Fore
59 640 m 4
 59 665 80 686 105 686 c 4
 130 686 151 665 151 640 c 4
 151 615 130 594 105 594 c 4
 80 594 59 615 59 640 c 4
70 524 m 5
 140 524 l 5
 140 0 l 5
 70 0 l 5
 70 524 l 5
EndSplineSet
EndChar
StartChar: j
Encoding: 106 106 30
Width: 280
Flags: MW
HStem: -210 66<56 62> 605 92<163.596 176>
VStem: 140 70<0 524>
Back
70 720 m 29
 70 -26 l 29
210 716 m 29
 210 -30 l 29
140 -34 m 29
 140 712 l 29
 140 -34 l 29
280 718 m 29
 280 -28 l 29
350 716 m 29
 350 -30 l 29
420 -24 m 29
 420 722 l 29
 420 -24 l 29
EndSplineSet
Fore
127 651 m 4
 127 676 148 697 173 697 c 4
 198 697 219 676 219 651 c 4
 219 626 198 605 173 605 c 4
 148 605 127 626 127 651 c 4
-51 -172 m 9
 2 -127 l 1
 14 -138 32 -144 56 -144 c 1
 112 -144 140 -102 140 0 c 1
 140 524 l 5
 210 524 l 4
 210 0 l 1
 210 -148 152 -210 56 -210 c 1
 6 -210 -27 -195 -51 -172 c 9
EndSplineSet
EndChar
StartChar: k
Encoding: 107 107 31
Width: 461
Flags: MW
HStem: 690 20G<60 130>
VStem: 60 70<0 234 0 710>
DStem: 152 260 202 308 369 0 454 0 328 524 413 524 130 327 202 308
Back
70 720 m 29
 70 -26 l 29
210 716 m 29
 210 -30 l 29
140 -34 m 29
 140 712 l 29
 140 -34 l 29
280 718 m 29
 280 -28 l 29
350 716 m 29
 350 -30 l 29
420 -24 m 29
 420 722 l 29
 420 -24 l 29
EndSplineSet
Fore
202 308 m 5
 454 0 l 1
 369 0 l 1
 152 260 l 5
 130 234 l 5
 130 0 l 1
 60 0 l 1
 60 710 l 1
 130 710 l 1
 130 327 l 21
 328 524 l 1
 413 524 l 1
 202 308 l 5
EndSplineSet
EndChar
StartChar: l
Encoding: 108 108 32
Width: 210
Flags: W
HStem: 690 20G<70 140>
VStem: 70 70<81 710>
Back
70 720 m 29
 70 -26 l 29
210 716 m 29
 210 -30 l 29
140 -34 m 29
 140 712 l 29
 140 -34 l 29
280 718 m 29
 280 -28 l 29
350 716 m 29
 350 -30 l 29
420 -24 m 29
 420 722 l 29
 420 -24 l 29
EndSplineSet
Fore
140 105 m 1
 140 66 144 50 158 50 c 1
 158 -14 l 1
 84 -14 70 6 70 103 c 2
 70 710 l 1
 140 710 l 1
 140 105 l 1
EndSplineSet
EndChar
StartChar: m
Encoding: 109 109 33
Width: 749
Flags: MW
VStem: 60 70<0 337 319 524> 340 70<0 324> 620 70<0 325>
Back
70 720 m 29
 70 -26 l 29
210 716 m 29
 210 -30 l 29
140 -34 m 29
 140 712 l 29
 140 -34 l 29
280 718 m 29
 280 -28 l 29
350 716 m 29
 350 -30 l 29
420 -24 m 29
 420 722 l 29
 420 -24 l 29
EndSplineSet
Fore
410 0 m 1
 340 0 l 0
 340 302 l 0
 340 386 319 468 265 468 c 1
 203 468 130 406 130 322 c 0
 130 0 l 9
 60 0 l 1
 60 319 l 1
 60 524 l 1
 130 524 l 1
 130 460 l 17
 167 493 189 535 260 535 c 0
 333.672 535 372.608 498.526 392.162 442.777 c 1
 424.924 490.815 465.178 535 540 535 c 0
 665 535 690 430 690 304 c 0
 690 0 l 1
 620 0 l 0
 620 302 l 0
 620 386 599 468 545 468 c 1
 483 468 410 406 410 322 c 0
 410 0 l 1
EndSplineSet
EndChar
StartChar: n
Encoding: 110 110 34
Width: 500
Flags: MW
HStem: 468 67<267 285>
VStem: 60 70<0 337 319 524> 370 70<0 325>
Back
490 -24 m 29
 490 722 l 29
 490 -24 l 29
70 720 m 25
 70 -26 l 25
210 716 m 25
 210 -30 l 25
140 -34 m 25
 140 712 l 25
 140 -34 l 25
280 718 m 25
 280 -28 l 25
350 716 m 25
 350 -30 l 25
420 -24 m 25
 420 722 l 25
 420 -24 l 25
EndSplineSet
Fore
130 0 m 13
 60 0 l 5
 60 319 l 5
 60 524 l 5
 130 524 l 5
 130 460 l 21
 167 493 204 535 275 535 c 4
 400 535 440 430 440 304 c 4
 440 0 l 5
 370 0 l 4
 370 302 l 4
 370 386 334 468 280 468 c 5
 218 468 130 406 130 322 c 4
 130 0 l 13
EndSplineSet
EndChar
StartChar: o
Encoding: 111 111 35
Width: 495
Flags: W
HStem: -14 66<248 256> 468 66<248 256>
VStem: 47 70<262 275> 379 70<262 275>
Back
490 -24 m 29
 490 722 l 29
 490 -24 l 29
70 720 m 25
 70 -26 l 25
210 716 m 25
 210 -30 l 25
140 -34 m 25
 140 712 l 25
 140 -34 l 25
280 718 m 25
 280 -28 l 25
350 716 m 25
 350 -30 l 25
420 -24 m 25
 420 722 l 25
 420 -24 l 25
EndSplineSet
Fore
47 262 m 4
 47 416 118 534 248 534 c 4
 378 534 449 416 449 262 c 4
 449 108 378 -14 248 -14 c 5
 118 -14 47 108 47 262 c 4
117 262 m 4
 117 166 160 52 248 52 c 4
 342 52 379 166 379 262 c 4
 379 358 336 468 248 468 c 4
 160 468 117 358 117 262 c 4
EndSplineSet
EndChar
StartChar: p
Encoding: 112 112 36
Width: 490
Flags: W
HStem: -14 66<248 269> 467 66<267 285>
VStem: 60 70<-208 58 -208 273 -208 524> 379 70<239 289>
Back
70 720 m 25
 70 -26 l 25
210 716 m 25
 210 -30 l 25
140 -34 m 25
 140 712 l 25
 140 -34 l 25
280 718 m 25
 280 -28 l 25
350 716 m 25
 350 -30 l 25
420 -24 m 25
 420 722 l 25
 420 -24 l 25
EndSplineSet
Fore
130 -208 m 21
 60 -208 l 5
 60 524 l 5
 130 524 l 5
 130 449 l 21
 162 495 198 533 269 533 c 4
 392 533 449 402 449 264 c 4
 449 126 408 -14 250 -14 c 5
 170 -14 130 58 130 58 c 4
 130 58 130 -104.26 130 -208 c 21
379 262 m 4
 379 376 336 467 274 467 c 5
 206 467 128 388 128 262 c 5
 128 120 200 52 255 52 c 4
 328 52 379 128 379 262 c 4
EndSplineSet
EndChar
StartChar: q
Encoding: 113 113 37
Width: 490
Flags: W
HStem: -14 66<222 244> 467 66<216 225>
VStem: 43 70<244 278> 362 70<-112 58 244 524>
Back
70 720 m 29
 70 -26 l 29
210 716 m 29
 210 -30 l 29
140 -34 m 29
 140 712 l 29
 140 -34 l 29
280 718 m 29
 280 -28 l 29
350 716 m 29
 350 -30 l 29
420 -24 m 29
 420 722 l 29
 420 -24 l 29
EndSplineSet
Fore
113 262 m 0
 113 128 164 52 237 52 c 0
 292 52 364 120 364 262 c 1
 364 388 286 467 218 467 c 1
 156 467 113 376 113 262 c 0
432 -82.8232 m 0
 432 -107 l 2
 432 -139 448 -153 490 -153 c 1
 490 -219 l 1
 407 -219 362 -184 362 -110 c 1
 362 -82.8232 l 8
 362 -27.9023 362 58 362 58 c 0
 362 58 322 -14 242 -14 c 1
 84 -14 43 126 43 264 c 0
 43 402 100 533 223 533 c 0
 294 533 330 495 362 449 c 9
 362 524 l 1
 432 524 l 1
 432 -82.8232 l 0
EndSplineSet
EndChar
StartChar: r
Encoding: 114 114 38
Width: 375
Flags: MW
HStem: 463 67<242 253>
VStem: 60 70<0 337 0 524>
Back
70 720 m 29
 70 -26 l 29
210 716 m 29
 210 -30 l 29
140 -34 m 29
 140 712 l 29
 140 -34 l 29
280 718 m 29
 280 -28 l 29
350 716 m 29
 350 -30 l 29
420 -24 m 29
 420 722 l 29
 420 -24 l 29
EndSplineSet
Fore
312 443 m 1
 301 450 266 463 249 463 c 1
 192 463 130 384 130 331 c 0
 130 331 130 129.09 130 0 c 17
 60 0 l 1
 60 524 l 1
 130 524 l 1
 130 456 l 17
 162 500 205 530 244 530 c 0
 274 530 320 518 344 503 c 1
 312 443 l 1
EndSplineSet
KernsSLIF: 101 -20 0 0
EndChar
StartChar: s
Encoding: 115 115 39
Width: 450
Flags: W
HStem: -14 66<217 235> 470 66<201 235>
VStem: 56 70<385 403> 333 70<147 149>
Back
70 720 m 29
 70 -26 l 29
210 716 m 29
 210 -30 l 29
140 -34 m 29
 140 712 l 29
 140 -34 l 29
280 718 m 29
 280 -28 l 29
350 716 m 29
 350 -30 l 29
420 -24 m 29
 420 722 l 29
 420 -24 l 29
EndSplineSet
Fore
224 242 m 0
 146.432 267.359 56 283 56 388 c 0
 56 485 118 536 224 536 c 0
 332 536 375 484 399 425 c 1
 329 413 l 0
 312 450 283 470 225 470 c 0
 148 470 126 447 126 391 c 0
 126 333 192 321 225 309 c 0
 298.725 282.191 403 254 403 147 c 0
 403 40 330 -14 226 -14 c 0
 122 -14 61 28 42 106 c 1
 112 118 l 1
 119 79 161 52 224 52 c 0
 300 52 333 84 333 147 c 0
 333 198 276 225 224 242 c 0
EndSplineSet
EndChar
StartChar: t
Encoding: 116 116 40
Width: 350
Flags: W
HStem: -14 62<253 289> 459 65<55 126 196 294>
VStem: 126 70<97 459 524 646>
Back
70 720 m 29
 70 -26 l 29
210 716 m 29
 210 -30 l 29
140 -34 m 29
 140 712 l 29
 140 -34 l 29
280 718 m 29
 280 -28 l 29
350 716 m 29
 350 -30 l 29
420 -24 m 29
 420 722 l 29
 420 -24 l 29
EndSplineSet
Fore
126 459 m 0
 55 459 l 1
 55 524 l 1
 126 524 l 0
 126 646 l 5
 196 646 l 4
 196 524 l 0
 294 524 l 1
 294 459 l 1
 196 459 l 0
 196 105 l 0
 196 54 231 48 253 48 c 1
 289 48 l 1
 289 -14 l 1
 253 -14 l 1
 153 -14 126 24 126 103 c 1
 126 459 l 0
EndSplineSet
EndChar
StartChar: u
Encoding: 117 117 41
Width: 500
Flags: W
HStem: -11 67<230 248> 504 20G<55 125 365 435>
VStem: 55 70<202 524> 365 70<0 524>
Back
70 720 m 29
 70 -26 l 29
210 716 m 29
 210 -30 l 29
140 -34 m 29
 140 712 l 29
 140 -34 l 29
280 718 m 29
 280 -28 l 29
350 716 m 29
 350 -30 l 29
420 -24 m 29
 420 722 l 29
 420 -24 l 29
EndSplineSet
Fore
365 524 m 13
 435 524 l 5
 435 205 l 5
 435 0 l 5
 365 0 l 5
 365 53 l 21
 346 26 311 -11 240 -11 c 4
 115 -11 55 94 55 220 c 4
 55 524 l 5
 125 524 l 4
 125 222 l 4
 125 138 181 56 235 56 c 5
 297 56 365 118 365 202 c 4
 365 524 l 13
EndSplineSet
EndChar
StartChar: v
Encoding: 118 118 42
Width: 500
Flags: MW
Back
70 720 m 29
 70 -26 l 29
210 716 m 29
 210 -30 l 29
140 -34 m 29
 140 712 l 29
 140 -34 l 29
280 718 m 29
 280 -28 l 29
350 716 m 29
 350 -30 l 29
420 -24 m 29
 420 722 l 29
 420 -24 l 29
EndSplineSet
Fore
215 0 m 1
 35 524 l 1
 113 524 l 1
 250 95 l 5
 390 524 l 1
 467 524 l 1
 285 0 l 1
 215 0 l 1
EndSplineSet
EndChar
StartChar: w
Encoding: 119 119 43
Width: 631
Flags: MW
DStem: 283 520 316 417 187 130 213 0 316 417 349 520 416 0 445 130
Back
70 720 m 29
 70 -26 l 29
210 716 m 29
 210 -30 l 29
140 -34 m 29
 140 712 l 29
 140 -34 l 29
280 718 m 29
 280 -28 l 29
350 716 m 29
 350 -30 l 29
420 -24 m 29
 420 722 l 29
 420 -24 l 29
EndSplineSet
Fore
316 417 m 1
 213 0 l 1
 160 0 l 1
 30 524 l 1
 101 524 l 1
 187 130 l 1
 283 520 l 0
 283 520 323.26 520 349 520 c 17
 445 130 l 1
 531 524 l 17
 602 524 l 1
 472 0 l 1
 416 0 l 1
 316 417 l 1
EndSplineSet
EndChar
StartChar: x
Encoding: 120 120 44
Width: 480
Flags: MW
DStem: 44 524 125 524 196 263 239 312
Back
70 720 m 29
 70 -26 l 29
210 716 m 29
 210 -30 l 29
140 -34 m 29
 140 712 l 29
 140 -34 l 29
280 718 m 29
 280 -28 l 29
350 716 m 29
 350 -30 l 29
420 -24 m 29
 420 722 l 29
 420 -24 l 29
EndSplineSet
Fore
438 0 m 1
 357 0 l 9
 239 215 l 1
 127 0 l 1
 43 0 l 9
 196 263 l 1
 44 524 l 9
 75.5898 524 125 524 125 524 c 0
 239 312 l 0
 353 524 l 1
 434 524 l 1
 282 265 l 0
 438 0 l 1
EndSplineSet
EndChar
StartChar: y
Encoding: 121 121 45
Width: 470
Flags: W
HStem: -219 66<230 251> -8 67<230 249> 504 20G<55 125 365 435>
VStem: 55 70<205 524> 365 70<-28 56 3 524>
Back
70 720 m 29
 70 -26 l 29
210 716 m 29
 210 -30 l 29
140 -34 m 29
 140 712 l 29
 140 -34 l 29
280 718 m 29
 280 -28 l 29
350 716 m 29
 350 -30 l 29
420 -24 m 29
 420 722 l 29
 420 -24 l 29
EndSplineSet
Fore
435 3 m 4
 435 208 l 5
 435 524 l 5
 365 524 l 21
 365 205 l 4
 365 121 297 59 235 59 c 5
 181 59 125 141 125 225 c 4
 125 524 l 4
 55 524 l 5
 55 223 l 4
 55 97 115 -8 240 -8 c 4
 311 -8 346 29 365 56 c 13
 365 31.8203 365 -6 365 -6 c 4
 365 -16 l 4
 365 -110 306 -153 245 -153 c 4
 187 -153 135 -111 126 -53 c 13
 98.7002 -53 56 -53 56 -53 c 4
 64 -119 120 -219 249 -219 c 5
 348 -219 435 -142 435 -9 c 5
 435 3 l 4
EndSplineSet
EndChar
StartChar: z
Encoding: 122 122 46
Width: 490
Flags: W
HStem: 0 69<170 433> 455 69<59 317>
DStem: 317 455 436 524 51 0 170 69
Back
70 720 m 29
 70 -26 l 29
210 716 m 29
 210 -30 l 29
140 -34 m 29
 140 712 l 29
 140 -34 l 29
280 718 m 29
 280 -28 l 29
350 716 m 29
 350 -30 l 29
420 -24 m 29
 420 722 l 29
 420 -24 l 29
EndSplineSet
Fore
170 69 m 1
 433 69 l 1
 433 0 l 1
 51 0 l 1
 317 455 l 2
 59 455 l 1
 59 524 l 1
 436 524 l 1
 170 69 l 1
EndSplineSet
EndChar
StartChar: braceleft
Encoding: 123 123 21
Width: 365
Flags: W
Fore
39 350 m 1
 171 392 118 587 144 648 c 1
 174 709 238 709 305 711 c 1
 305 645 l 1
 298 646 291 647 284 647 c 0
 258 647 223 637 210 618 c 1
 205 609 204 590 204 568 c 0
 204 561 204 554 204 546 c 0
 204 487 192 370 143 350 c 1
 192 332 204 217 204 155 c 0
 204 134 l 0
 204 110 205 91 210 82 c 1
 223 63 258 53 284 53 c 0
 291 53 298 54 305 55 c 1
 305 -11 l 1
 238 -9 174 -9 144 52 c 1
 118 113 171 310 39 350 c 1
EndSplineSet
EndChar
StartChar: bar
Encoding: 124 124 22
Width: 180
Flags: W
HStem: 0 21G<56 126> 690 20G<56 126>
VStem: 56 70<0 710>
Fore
56 0 m 17
 56 710 l 5
 126 710 l 5
 126 0 l 9
 56 0 l 17
EndSplineSet
EndChar
StartChar: braceright
Encoding: 125 125 22
Width: 365
Flags: W
Fore
326 350 m 1
 194 310 247 113 221 52 c 1
 191 -9 127 -9 60 -11 c 1
 60 55 l 1
 67 54 74 53 81 53 c 0
 107 53 142 63 155 82 c 1
 160 91 161 110 161 134 c 0
 161 155 l 0
 161 217 173 332 222 350 c 1
 173 370 161 487 161 546 c 0
 161 554 161 561 161 568 c 0
 161 590 160 609 155 618 c 1
 142 637 107 647 81 647 c 0
 74 647 67 646 60 645 c 1
 60 711 l 1
 127 709 191 709 221 648 c 1
 247 587 194 392 326 350 c 1
EndSplineSet
EndChar
StartChar: asciitilde
Encoding: 126 126 23
Width: 359
Flags: W
Fore
26 373 m 17
 48 391 77 420 115 420 c 0
 163 420 194 346 245 346 c 1
 279 346 307 372 337 394 c 9
 337 323 l 17
 307 300 281 275 245 275 c 0
 189 275 154 349 114 349 c 0
 76 349 53 324 26 302 c 9
 26 373 l 17
EndSplineSet
EndChar
StartChar: cent
Encoding: 162 162 26
Width: 395
Flags: W
HStem: 38 160<205 247> 423 167<179 227>
VStem: 34 70<309 327> 181 66<38 134 484 590>
Fore
181 136 m 5
 100 146 34 212 34 321 c 4
 34 426 118 470 179 485 c 5
 179 590 l 5
 245 590 l 5
 245 485 l 5
 284 475 316 453 342 430 c 13
 324.84 412.06 298 384 298 384 c 4
 284 398 258 424 207 423 c 5
 153 423 104 380 104 319 c 4
 104 244 148 198 210 198 c 4
 250 198 284 214 312 250 c 13
 356 206 l 5
 336 174 295 149 247 134 c 5
 247 38 l 5
 181 38 l 5
 181 136 l 5
EndSplineSet
EndChar
StartChar: sterling
Encoding: 163 163 27
Width: 547
Flags: W
HStem: 0 66<172 412> 291 66<36 147 227 402> 651 65<286 293>
VStem: 152 75<357 417>
Fore
147 291 m 1
 36 291 l 1
 36 357 l 1
 152 357 l 1
 152 586 190 716 286 716 c 0
 356 716 410 672 446 571 c 1
 376 568 l 1
 366 608 338 651 286 651 c 0
 254 651 227 534 227 456 c 0
 227 441 227 411 227 395 c 0
 227 382 227 370 227 357 c 1
 402 357 l 1
 402 291 l 1
 224 291 l 1
 218.708 216.919 191.104 123.312 172 66 c 1
 418 66 l 1
 434 67 451 68 475 101 c 1
 514 45 l 1
 491 10 451 6 412 0 c 1
 66 0 l 1
 82.0318 64.127 140.42 185.721 147 291 c 1
EndSplineSet
EndChar
StartChar: currency
Encoding: 164 164 28
Width: 418
Flags: W
HStem: 183 96<26 122 330 392> 462 96<26 85 296 392>
VStem: 26 96<183 246 462 558> 56 66<359.456 375> 296 96<183 279 498 558>
Fore
122 373 m 4xd8
 122 324 161.2 284.8 210.2 284.8 c 4
 259.2 284.8 298.4 324 298.4 373 c 4
 298.4 422 259.2 461.2 210.2 461.2 c 4
 161.2 461.2 122 422 122 373 c 4xd8
296 246 m 1
 271 229 241 219 209 219 c 0
 177 219 147 229 122 246 c 1
 122 183 l 1
 26 183 l 1
 26 279 l 1xe8
 88 279 l 1
 68 305 56 337 56 372 c 0xd8
 56 406 67 437 85 462 c 1
 26 462 l 1
 26 558 l 1
 122 558 l 1
 122 498 l 1xe8
 147 515 177 525 209 525 c 0
 241 525 271 515 296 498 c 1
 296 558 l 1
 392 558 l 1
 392 462 l 1
 333 462 l 1
 351 437 362 406 362 372 c 0
 362 337 350 305 330 279 c 1
 392 279 l 1
 392 183 l 1
 296 183 l 1
 296 246 l 1
EndSplineSet
EndChar
StartChar: yen
Encoding: 165 165 29
Width: 542
Flags: MW
HStem: 162 66<73 227 297 448> 333 66<73 227 327 448>
VStem: 227 70<0 162 228 333>
DStem: 31 682 107 682 199 399 265 406 433 682 509 682 265 406 327 399
Fore
227 333 m 1
 73 333 l 1
 73 399 l 1
 199 399 l 1
 31 682 l 1
 107 682 l 1
 265 406 l 5
 433 682 l 1
 509 682 l 1
 327 399 l 1
 448 399 l 1
 448 333 l 1
 297 333 l 1
 297 228 l 1
 448 228 l 1
 448 162 l 1
 297 162 l 1
 297 0 l 1
 227 0 l 1
 227 162 l 1
 73 162 l 1
 73 228 l 1
 227 228 l 1
 227 333 l 1
EndSplineSet
EndChar
StartChar: brokenbar
Encoding: 166 166 26
Width: 149
Flags: W
HStem: 0 21G<39 109> 680 20G<39 109>
VStem: 39 70<0 325 375 700>
Fore
109 325 m 17
 109 0 l 1
 39 0 l 1
 39 325 l 9
 109 325 l 17
39 375 m 17
 39 700 l 1
 109 700 l 1
 109 375 l 9
 39 375 l 17
EndSplineSet
EndChar
StartChar: section
Encoding: 167 167 27
Width: 335
Flags: W
HStem: 51 66<156 172> 211 66<207 218> 406 66<111 129> 566 66<164 180>
VStem: 16 74<399 426> 242 79<259 284>
Fore
86 468 m 1
 95.1215 470.606 105.656 471.999 118 472 c 0
 218.699 472 321 382 321 259 c 0
 321 150 252 51 166 51 c 0
 108 51 59.7628 74.9002 20 142 c 9
 93 147 l 17
 106 129 139 117 158 117 c 2
 160 117 l 2
 208 117 240 160 250 215 c 0
 251.322 222.271 229.713 211.003 218 211 c 0
 118.877 211 16 282 16 426 c 0
 16 532 78 632 170 632 c 0
 236 632 266 608 309 552 c 1
 234 544 l 0
 222 557 194 566 178 566 c 2
 176 566 l 2
 124 566 98 522 86 468 c 1
242 284 m 0
 242 341 190 406 117 406 c 0
 105.675 406 98.2422 403.71 90 399 c 1
 90 341 156 277 215 277 c 0
 225.907 277 242 275.589 242 284 c 0
EndSplineSet
EndChar
StartChar: dieresis
Encoding: 168 168 27
Width: 388
Flags: W
VStem: 32 92<398.596 411> 262 92<409 411>
Fore
262 409 m 0
 262 434 283 455 308 455 c 0
 333 455 354 434 354 409 c 0
 354 384 333 363 308 363 c 0
 283 363 262 384 262 409 c 0
32 408 m 0
 32 433 53 454 78 454 c 0
 103 454 124 433 124 408 c 0
 124 383 103 362 78 362 c 0
 53 362 32 383 32 408 c 0
EndSplineSet
EndChar
StartChar: copyright
Encoding: 169 169 28
Width: 460
Flags: W
HStem: 152 56<229 240> 265 55<229 240> 412 55<229 231> 524 56<229 240>
VStem: 15 57<366 377> 128 55<366 368> 386 57<366 377>
Fore
302 298 m 17
 284 280 257 265 229 265 c 0
 173 265 128 310 128 366 c 0
 128 422 173 467 229 467 c 0
 257 467 284 456 302 438 c 9
 264 398 l 17
 255 406 242 412 229 412 c 0
 204 412 183 391 183 366 c 0
 183 341 204 320 229 320 c 0
 242 320 257 325 266 333 c 9
 302 298 l 17
72 366 m 0
 72 279 142 208 229 208 c 0
 316 208 386 279 386 366 c 0
 386 453 316 524 229 524 c 0
 142 524 72 453 72 366 c 0
15 366 m 0
 15 484 111 580 229 580 c 0
 347 580 443 484 443 366 c 0
 443 248 347 152 229 152 c 0
 111 152 15 248 15 366 c 0
EndSplineSet
EndChar
StartChar: ordfeminine
Encoding: 170 170 29
Width: 243
Flags: W
HStem: 378 36<14 226> 434 36.1603<96.9962 99.111> 602.748 36.1603<96.9962 99.111> 696.984 36.1603<98.0536 107.042>
VStem: -3.45755 37.0093<536.454 539.741> 160.441 35.4232<529.879 589.599>
Fore
14 414 m 5
 226 414 l 5
 226 378 l 5
 14 378 l 5
 14 414 l 5
EndSplineSet
Ref: 97 97 N 0.528704 0 0 0.547884 -23.5483 441.67
EndChar
StartChar: guillemotleft
Encoding: 171 171 30
Width: 426
Flags: W
DStem: 24 404 90 404 118 262 184 262 118 546 184 546 24 404 90 404 220 404 286 404 314 262 380 262 314 546 380 546 220 404 286 404
Fore
314 546 m 1
 380 546 l 1
 286 404 l 1
 380 262 l 1
 314 262 l 1
 220 404 l 1
 314 546 l 1
118 546 m 1
 184 546 l 1
 90 404 l 1
 184 262 l 1
 118 262 l 1
 24 404 l 1
 118 546 l 1
EndSplineSet
EndChar
StartChar: logicalnot
Encoding: 172 172 31
Width: 501
Flags: W
HStem: 366 70<70 378>
VStem: 378 66<266 436>
Fore
444 266 m 1
 378 266 l 1
 378 366 l 0
 70 366 l 1
 70 436 l 1
 444 436 l 1
 444 266 l 1
EndSplineSet
EndChar
StartChar: registered
Encoding: 174 174 33
Width: 476
Flags: W
HStem: 119 57<239 246> 455 38<193 220> 556 57<239 246>
VStem: 21 57<366 393> 153 40<242 352 242 455> 293 39<423 425> 400 57<366 393>
DStem: 193 352 241 354 294 242 343 242
Back
313.11 294.89 m 17
 294.905 276.685 269.76 265.42 242 265.42 c 0
 186.479 265.42 141.42 310.479 141.42 366 c 0
 141.42 421.521 186.479 466.58 242 466.58 c 0
 269.76 466.58 294.905 455.315 313.11 437.11 c 9
 274.522 398.522 l 17
 266.196 406.848 254.696 412 242 412 c 0
 216.608 412 196 391.392 196 366 c 0
 196 340.608 216.608 320 242 320 c 0
 254.696 320 266.196 325.152 274.522 333.478 c 9
 313.11 294.89 l 17
274.522 398.522 m 0
274.522 333.478 m 0
313.11 437.11 m 0
313.11 294.89 m 0
242 366 m 25
84.5 366 m 4
 84.5 279.061 155.061 208.5 242 208.5 c 4
 328.939 208.5 399.5 279.061 399.5 366 c 4
 399.5 452.939 328.939 523.5 242 523.5 c 4
 155.061 523.5 84.5 452.939 84.5 366 c 4
28 366 m 4
 28 484.128 123.872 580 242 580 c 4
 360.128 580 456 484.128 456 366 c 4
 456 247.872 360.128 152 242 152 c 4
 123.872 152 28 247.872 28 366 c 4
EndSplineSet
Fore
78 366 m 0
 78 226 152 176 239 176 c 0
 326 176 400 226 400 366 c 0
 400 506 326 556 239 556 c 0
 152 556 78 506 78 366 c 0
21 366 m 0
 21 546 121 613 239 613 c 0
 357 613 457 546 457 366 c 0
 457 186 357 119 239 119 c 0
 121 119 21 186 21 366 c 0
193 391 m 1
 201 391 209 391 218 391 c 0
 256 391 293 394 293 423 c 1
 293 453 247 455 207 455 c 0
 202 455 197 455 193 455 c 1
 193 391 l 1
153 493 m 0
 193 493 l 1
 266 493 332 475 332 423 c 0
 332 374 288 361 241 354 c 1
 343 242 l 1
 294 242 l 1
 193 352 l 1
 193 242 l 1
 153 242 l 1
 153 493 l 0
EndSplineSet
EndChar
StartChar: macron
Encoding: 175 175 34
Width: 345
Flags: W
HStem: 486 66<26 321>
Fore
26 552 m 1
 321 552 l 1
 321 486 l 1
 26 486 l 1
 26 552 l 1
EndSplineSet
EndChar
StartChar: degree
Encoding: 176 176 28
Width: 292
Flags: MW
Fore
76.3203 575.05 m 4
 76.3203 534.16 107.34 501.73 146.82 501.73 c 4
 186.3 501.73 217.32 534.16 217.32 575.05 c 4
 217.32 615.94 186.3 648.37 146.82 648.37 c 4
 107.34 648.37 76.3203 615.94 76.3203 575.05 c 4
19 573 m 0
 19 643 76 699 147 699 c 0
 218 699 275 643 275 573 c 0
 275 503 218 447 147 447 c 0
 76 447 19 503 19 573 c 0
EndSplineSet
EndChar
StartChar: uni00B2
Encoding: 178 178 30
Width: 214
Flags: W
HStem: 425 38<81 188> 662 38<102 106>
VStem: 142 42<606 618>
Fore
63 623 m 9
 25 640 l 17
 34 671 65 700 102 700 c 1
 139 700 184 671 184 606 c 1
 184 561 142 523 98 481 c 1
 81 463 l 1
 188 463 l 17
 188 425 l 1
 25 425 l 1
 25 463 l 1
 67 505 l 17
 98 537 142 567 142 606 c 0
 142 642 124 662 102 662 c 1
 82 662 69 646 63 623 c 9
EndSplineSet
EndChar
StartChar: uni00B3
Encoding: 179 179 31
Width: 206
Flags: W
HStem: 412 39<96 100> 542 38<89 99> 662 38<96 100>
VStem: 141 39<623 625>
Fore
14 466 m 9
 50 478 l 17
 60 458 81 451 96 451 c 1
 122 451 145 469 145 494 c 1
 145 522 126 542 96 542 c 1
 93 542 91 542 89 542 c 0
 86 542 84 542 82 541 c 1
 82 581 l 1
 84 580 86 580 89 580 c 0
 91 580 94 580 97 580 c 1
 124 580 141 597 141 623 c 1
 141 644 123 662 96 662 c 1
 82 662 61 656 54 637 c 9
 21 656 l 17
 35 686 65 700 96 700 c 1
 144 700 180 665 180 623 c 1
 180 586 160 569 150 560 c 1
 161 550 183 532 183 494 c 1
 183 444 145 412 96 412 c 1
 66 412 29 432 14 466 c 9
EndSplineSet
EndChar
StartChar: acute
Encoding: 180 180 29
Width: 269
Flags: MW
DStem: 127 728 211 728 44 609 129 609
Fore
44 609 m 5
 127 728 l 5
 211 728 l 6
 129 609 l 6
 44 609 l 5
EndSplineSet
EndChar
StartChar: mu
Encoding: 181 181 30
Width: 490
Flags: W
HStem: -13 67<229 247> 406 20G<70 141 350 420>
VStem: 70 70<-193 12 -193 426> 350 70<0 426>
Fore
140 12.1504 m 1
 140 -193 l 1
 70 -193 l 1
 70 426 l 1
 141 426 l 0
 141 202 l 0
 141 94 179 54 237 54 c 1
 315 54 350 142 350 202 c 0
 350 426 l 9
 420 426 l 1
 420 0 l 1
 350 0 l 1
 350 48 l 17
 321 12 281 -13 242 -13 c 0
 204.168 -13 166.924 -5.31055 140 12.1504 c 1
EndSplineSet
EndChar
StartChar: paragraph
Encoding: 182 182 31
Width: 562
Flags: W
HStem: 0 66<310 490> 299 66<310 335.971 310 416> 621 61<393 416>
VStem: 54 70<486 497> 240 70<0 304 378 615> 416 74<66 682>
Fore
310 615 m 1
 310 365 l 1
 327 365 398 361 416 361 c 1
 416 621 l 1
 399 621 328 615 310 615 c 1
240 599 m 1
 188 582 124 554 124 486 c 1
 124 410 186 392 240 378 c 1
 240 599 l 1
310 66 m 1
 416 66 l 1
 416 299 l 1
 398 299 328 304 310 304 c 1
 310 66 l 1
240 0 m 1
 240 314 l 1
 134 337 54 373 54 486 c 0
 54 618 218 682 394 682 c 1
 490 682 l 0
 490 0 l 1
 240 0 l 1
EndSplineSet
EndChar
StartChar: cedilla
Encoding: 184 184 30
Width: 231
Flags: W
Fore
52 -93 m 1
 67 -82 98 -60 98 -42 c 0
 98 -26 87 -14 71 9 c 0
 134 36 l 0
 155 16 175 -14 175 -48 c 0
 175 -102 107 -132 73 -154 c 1
 52 -93 l 1
EndSplineSet
EndChar
StartChar: uni00B9
Encoding: 185 185 31
Width: 130
Flags: W
HStem: 662 20G<64 102>
VStem: 65 37<414 682>
Fore
35 606 m 1
 11 635 l 1
 64 682 l 1
 102 682 l 1
 102 414 l 1
 65 414 l 1
 65 631 l 1
 35 606 l 1
EndSplineSet
EndChar
StartChar: ordmasculine
Encoding: 186 186 32
Width: 291
Flags: W
HStem: 347 54<21 275> 429 21G<110.5 181.5> 661 20G<110.5 181.5>
Fore
21 401 m 5
 275 401 l 5
 275 347 l 5
 21 347 l 5
 21 401 l 5
73.8496 555.25 m 0
 73.8496 513.2 105.75 479.85 146.35 479.85 c 0
 186.95 479.85 218.85 513.2 218.85 555.25 c 0
 218.85 597.3 186.95 630.65 146.35 630.65 c 0
 105.75 630.65 73.8496 597.3 73.8496 555.25 c 0
18 555 m 0
 18 625 75 681 146 681 c 0
 217 681 274 625 274 555 c 0
 274 485 217 429 146 429 c 0
 75 429 18 485 18 555 c 0
EndSplineSet
EndChar
StartChar: guillemotright
Encoding: 187 187 33
Width: 456
Flags: W
DStem: 43 546 109 546 137 404 203 404 137 404 203 404 43 262 109 262 239 546 305 546 333 404 399 404 333 404 399 404 239 262 305 262
Fore
109 546 m 1
 203 404 l 1
 109 262 l 1
 43 262 l 1
 137 404 l 1
 43 546 l 1
 109 546 l 1
305 546 m 1
 399 404 l 1
 305 262 l 1
 239 262 l 1
 333 404 l 1
 239 546 l 1
 305 546 l 1
EndSplineSet
EndChar
StartChar: onequarter
Encoding: 188 188 34
Width: 499
Flags: W
HStem: 0 21G<383 427> 106 44<311 383 427 471> 662 20G<95 133>
VStem: 96 37<414 682> 383 44<0 106 150 313>
DStem: 293 313 338 313 262 106 311 150 356 555 412 555 20 153 76 153
Fore
66 606 m 1
 42 635 l 1
 95 682 l 1
 133 682 l 1
 133 414 l 1
 96 414 l 1
 96 631 l 1
 66 606 l 1
427 0 m 1
 383 0 l 1
 383 106 l 1
 262 106 l 9
 293 313 l 1
 338 313 l 1
 311 150 l 1
 383 150 l 1
 383 313 l 1
 427 313 l 1
 427 150 l 9
 471 150 l 17
 471 106 l 1
 427 106 l 1
 427 0 l 1
76 153 m 1
 20 153 l 1
 356 555 l 0
 412 555 l 1
 76 153 l 1
EndSplineSet
EndChar
StartChar: onehalf
Encoding: 189 189 35
Width: 458
Flags: W
HStem: 0 38<323 430> 237 38<344 346> 662 20G<95 133>
VStem: 96 37<414 682> 384 42<180 193>
DStem: 356 555 412 555 20 153 76 153
Fore
76 153 m 1
 20 153 l 1
 356 555 l 0
 412 555 l 1
 76 153 l 1
305 198 m 9
 268 214 l 17
 276 246 307 275 344 275 c 1
 381 275 426 246 426 180 c 1
 426 136 384 98 341 55 c 1
 323 38 l 1
 430 38 l 17
 430 0 l 1
 268 0 l 1
 268 38 l 1
 309 79 l 17
 341 111 384 142 384 180 c 0
 384 217 366 237 344 237 c 1
 324 237 311 221 305 198 c 9
66 606 m 1
 42 635 l 1
 95 682 l 1
 133 682 l 1
 133 414 l 1
 96 414 l 1
 96 631 l 1
 66 606 l 1
EndSplineSet
EndChar
StartChar: threequarters
Encoding: 190 190 36
Width: 517
Flags: W
HStem: 0 21G<403 447> 106 44<331 403 447 491> 412 39<93 99> 542 38<86 98> 662 38<93 99>
VStem: 138 39<612.521 626> 403 44<0 106 150 313>
DStem: 313 313 358 313 282 106 331 150 376 555 432 555 40 153 96 153
Fore
96 153 m 1
 40 153 l 1
 376 555 l 0
 432 555 l 1
 96 153 l 1
11 466 m 9
 47 478 l 17
 57 458 78 451 93 451 c 1
 119 451 142 469 142 494 c 1
 142 522 123 542 93 542 c 1
 90 542 88 542 86 542 c 0
 84 542 82 542 79 541 c 1
 79 581 l 1
 82 580 84 580 86 580 c 0
 88 580 90 580 94 580 c 1
 121 580 138 597 138 623 c 1
 138 644 120 662 93 662 c 1
 79 662 58 656 51 637 c 9
 18 656 l 17
 32 686 62 700 93 700 c 1
 141 700 177 665 177 623 c 1
 177 586 157 569 147 560 c 1
 158 550 180 532 180 494 c 1
 180 444 142 412 93 412 c 1
 63 412 26 432 11 466 c 9
447 0 m 1
 403 0 l 1
 403 106 l 1
 282 106 l 9
 313 313 l 1
 358 313 l 1
 331 150 l 1
 403 150 l 1
 403 313 l 1
 447 313 l 1
 447 150 l 9
 491 150 l 17
 491 106 l 1
 447 106 l 1
 447 0 l 1
EndSplineSet
EndChar
StartChar: AE
Encoding: 198 198 37
Width: 678
Flags: MW
DStem: 324.218 710.218 377.385 640.37 35.4453 0 278.645 384.957 324.218 710.218 249.242 315.11 35.4453 0 123.015 0
Fore
378.428 315.11 m 1
 249.242 315.11 l 4
 123.015 0 l 0
 35.4453 0 l 1
 324.218 710.218 l 1
 670.327 710.218 l 1
 670.327 638.285 l 0
 454.53 638.285 l 0
 454.53 384.957 l 1
 670.327 384.957 l 1
 670.327 313.025 l 0
 454.53 313.025 l 0
 454.53 71.9326 l 0
 670.327 71.9326 l 1
 670.327 0 l 1
 378.428 0 l 1
 378.428 315.11 l 1
377.385 603.883 m 1
 377.385 640.37 l 1
 278.645 384.957 l 1
 378.428 384.957 l 1
 377.385 603.883 l 1
EndSplineSet
EndChar
StartChar: Eth
Encoding: 208 208 46
Width: 1938
Flags: MW
Fore
156 323.44 m 5
 65.5195 323.44 l 5
 65.5195 392.08 l 5
 156 392.08 l 5
 156 709.28 l 5
 340.08 709.28 l 5
 518.96 709.28 633.36 553.28 633.36 354.64 c 5
 633.36 156 515.84 0 340.08 0 c 4
 227.76 0 l 5
 156 0 l 5
 156 323.44 l 5
228.8 323.44 m 5
 228.8 69.6797 l 5
 340.08 69.6797 l 5
 465.92 69.6797 560.56 185.12 560.56 354.64 c 5
 560.56 524.16 465.92 640.64 340.08 640.64 c 5
 228.8 640.64 l 5
 228.8 392.08 l 5
 377.52 392.08 l 5
 377.52 323.44 l 5
 228.8 323.44 l 5
EndSplineSet
EndChar
StartChar: Oslash
Encoding: 216 216 53
Width: 1180
Flags: MW
VStem: 44 70<350 371> 516 70<350 371>
DStem: 393.622 634.549 447.143 589.162 168.715 136.078 218.817 83.1133
Fore
190.324 19.9619 m 1
 175 -14 l 1
 101 -14 l 1
 136.901 65.5693 l 1
 70.5469 140.878 44 256.147 44 350.62 c 1
 44 505.12 114 721.42 315 721.42 c 1
 355.831 721.42 391.257 712.494 421.787 696.974 c 1
 437 730.69 l 0
 511 730.69 l 1
 477.625 656.72 l 1
 555.673 580.78 586 452.312 586 350.62 c 1
 586 196.12 515 -14 315 -14 c 1
 265.975 -14 224.701 -1.375 190.324 19.9619 c 1
218.817 83.1133 m 1
 244.978 64.8164 276.775 53.9805 315 53.9805 c 1
 465 53.9805 516 220.84 516 350.62 c 0
 516 430.574 497.023 526.946 447.143 589.162 c 1
 218.817 83.1133 l 1
168.715 136.078 m 1
 393.622 634.549 l 1
 371.154 646.573 345.081 653.44 315 653.44 c 0
 164 653.44 114 480.4 114 350.62 c 1
 114 278.968 129.546 196.014 168.715 136.078 c 1
EndSplineSet
EndChar
StartChar: Thorn
Encoding: 222 222 57
Width: 649
Flags: MW
Fore
140.8 232.96 m 1
 272.88 232.96 421.6 258.96 421.6 366.08 c 1
 421.6 480.48 247.92 492.96 140.8 492.96 c 1
 140.8 232.96 l 1
68 709.28 m 0
 140.8 709.28 l 1
 140.8 561.6 l 1
 323.84 561.6 494.4 521.04 494.4 366.08 c 0
 494.4 198.64 320.72 164.32 140.8 164.32 c 1
 140.8 0 l 1
 68 0 l 1
 68 709.28 l 0
EndSplineSet
EndChar
StartChar: germandbls
Encoding: 223 223 58
Width: 592
Flags: W
HStem: 0 21G<42 109.98>
Fore
82.1699 562.38 m 1
 125.43 658.17 190.32 722.03 314.95 722.03 c 1
 436.49 722.03 534.34 648.9 530.22 524.27 c 1
 530.22 429.51 434.43 380.07 375.72 364.62 c 1
 431.34 351.23 538.46 293.55 538.46 194.67 c 1
 538.46 58.71 435.46 -14.4199 293.32 -14.4199 c 1
 261.39 -14.4199 235.64 -5.15039 202.68 11.3301 c 9
 246.97 71.0703 l 17
 263.45 64.8896 278.9 53.5596 293.32 53.5596 c 1
 389.11 53.5596 470.48 95.79 470.48 194.67 c 1
 470.48 267.8 360.27 331.66 264.48 331.66 c 1
 257.27 331.66 252.12 331.66 246.97 331.66 c 0
 240.79 331.66 234.61 331.66 226.37 328.57 c 1
 226.37 402.73 l 1
 233.58 400.67 238.73 400.67 243.88 400.67 c 0
 250.06 400.67 256.24 400.67 264.48 400.67 c 1
 347.91 400.67 461.21 448.05 461.21 524.27 c 1
 461.21 614.91 403.53 655.08 314.95 655.08 c 1
 215.04 655.08 168.69 604.61 147.06 539.72 c 1
 113.07 440.84 119.25 151.41 109.98 0 c 1
 42 0 l 1
 57.4502 176.13 45.0898 485.13 82.1699 562.38 c 1
EndSplineSet
EndChar
StartChar: ae
Encoding: 230 230 63
Width: 776
Flags: W
HStem: -14 66<208 215 484 486> 229 66<375 663> 294 66<208 215> 466 66<210 215 470.468 487>
VStem: 38 70<173 179>
Back
414.656 295 m 5
 673.344 295 l 5
 664.672 381.516 622.031 468 544 468 c 4
 465.969 468 423.328 381.516 414.656 295 c 5
414.641 229 m 5
 423.281 141.719 465.938 52 544 52 c 4
 590.016 52 622.375 79.3281 643.422 118.484 c 4
 708.344 91.6094 l 4
 674.984 27.0625 619.422 -14 544 -14 c 5
 414 -14 343 108 343 262 c 4
 343 416 414 534 544 534 c 4
 674 534 745 416 745 262 c 4
 745 251.24 744.458 240.156 743.469 229 c 5
 414.641 229 l 5
228 294 m 4
 154 294 108 236 108 173 c 4
 108 110 154 52 228 52 c 4
 290 52 348 108 348 173 c 5
 348 238 290 294 228 294 c 4
228 360 m 4
 296 360 336 332 350 308 c 5
 349.439 330 l 4
 349.439 405 304 466 230 466 c 4
 184 466 142 450 120 428 c 13
 105.18 447.5 82 478 82 478 c 4
 116 506 160 532 230 532 c 4
 326.845 532 415.868 461 415.868 330 c 4
 415 270 l 4
 416 132 l 5
 416 96 430 56 472 56 c 5
 472 -10 l 5
 412 -10 373 4 364 49 c 5
 350 26 308 -14 228 -14 c 5
 118 -14 38 68 38 173 c 4
 38 278 128 360 228 360 c 4
EndSplineSet
Fore
208 294 m 0xb8
 134 294 108 236 108 173 c 0
 108 110 134 52 208 52 c 0
 270 52 308 108 308 173 c 1
 308 238 270 294 208 294 c 0xb8
347.172 444.129 m 1
 381.085 499.773 413.985 534 484 534 c 0
 614 534 665 416 665 262 c 0
 665 251.234 664.453 240.156 663.469 229 c 1
 375.297 229 l 1xd8
 375.297 182 389 52 484 52 c 0
 530.016 52 542.375 79.3281 563.422 118.484 c 0
 628.344 91.6094 l 0
 594.984 27.0625 559.422 -14 484 -14 c 0
 405.844 -14 380.021 27.0371 346 80 c 1
 320 34 302 -14 208 -14 c 0
 98 -14 38 68 38 173 c 0
 38 278 108 360 208 360 c 0
 270.223 360 291 337 310 309 c 1
 310.915 317.082 307.915 330.206 309.264 337.988 c 1
 306.152 409.284 281.354 466 210 466 c 0
 164 466 142 450 120 428 c 9
 105.18 447.5 82 478 82 478 c 0
 116 506 140 532 210 532 c 0
 273.279 532 313.223 501.687 347.172 444.129 c 1
375.364 295 m 1
 593.344 295 l 1
 584.672 381.516 562.031 468 484 468 c 0
 404 468 377 369 375.364 295 c 1
EndSplineSet
EndChar
StartChar: igrave
Encoding: 236 236 68
Width: 209
Flags: HMW
VStem: 70 70<0 524>
DStem: -22 686 55 686 63 562 142 562
Fore
70 524 m 1
 140 524 l 1
 140 0 l 1
 70 0 l 1
 70 524 l 1
EndSplineSet
Ref: 96 96 N 1 0 0 1 -69 -73
EndChar
StartChar: iacute
Encoding: 237 237 69
Width: 206
Flags: HMW
VStem: 70 70<0 524>
DStem: 149 684 233 684 66 565 151 565
Fore
70 524 m 1
 140 524 l 1
 140 0 l 1
 70 0 l 1
 70 524 l 1
EndSplineSet
Ref: 180 180 N 1 0 0 1 22 -44
EndChar
StartChar: icircumflex
Encoding: 238 238 70
Width: 434
Flags: MW
VStem: 188 70<0 524>
DStem: 193 714 226 650 58 547 149 547
Fore
188 524 m 1
 258 524 l 1
 258 0 l 1
 188 0 l 1
 188 524 l 1
EndSplineSet
Ref: 94 94 N 1 0 0 1 -2 -15
EndChar
StartChar: idieresis
Encoding: 239 239 71
Width: 326
Flags: W
HStem: 0 21G<130 200> 504 20G<130 200>
VStem: 4 92<608.596 621> 130 70<0 524> 234 92<619 621>
CounterMasks: 1 38
Fore
130 524 m 5
 200 524 l 5
 200 0 l 5
 130 0 l 5
 130 524 l 5
EndSplineSet
Ref: 168 168 S 1 0 0 1 -28 210
EndChar
StartChar: eth
Encoding: 240 240 72
Width: 503
Flags: W
HStem: -14 66<228 246> 386 66<212 230> 642 69<114 141>
VStem: 37 70<209 226> 376 70<220 245>
DStem: 217 630 274 588 151 567 199 518 352 745 399 692 276 677 329 630
Fore
107 222 m 0
 107 109 186 52 235 52 c 0
 310 52 376 136 376 222 c 1
 376 316 290 386 216 386 c 1
 156 386 107 295 107 222 c 0
329 630 m 1
 371 582 434 480 440 391 c 1
 443.345 341.819 447.318 306.46 446 245 c 1
 446 94 355.041 -14 240 -14 c 0
 92 -14 37 99 37 224 c 0
 37 350 116 452 221 452 c 0
 304 452 329 413 366 380 c 1
 366 436 320 547 274 588 c 1
 199 518 l 1
 151 567 l 1
 217 630 l 1
 191 639 165 642 139 642 c 0
 120 642 101 640 83 638 c 1
 76 710 l 1
 89 711 103 711 116 711 c 0
 171 711 225 703 276 677 c 1
 352 745 l 1
 399 692 l 1
 329 630 l 1
EndSplineSet
EndChar
StartChar: oslash
Encoding: 248 248 79
Width: 490
Flags: W
HStem: -14 66<248 262> 468 66<248 262>
VStem: 47 70<262 275> 379 70<262 275>
DStem: 320.172 436.844 357.969 376.641 138.047 145.906 175.25 84.7656
Back
47 262 m 4
 47 416 118 534 248 534 c 4
 378 534 449 416 449 262 c 4
 449 108 378 -14 248 -14 c 5
 118 -14 47 108 47 262 c 4
117 262 m 4
 117 166 160 52 248 52 c 4
 342 52 379 166 379 262 c 4
 379 358 336 468 248 468 c 4
 160 468 117 358 117 262 c 4
EndSplineSet
Fore
357.969 376.641 m 1
 175.25 84.7656 l 1
 194.609 64.5312 218.828 52 248 52 c 0
 342 52 379 166 379 262 c 0
 379 300.641 372.031 341.547 357.969 376.641 c 1
320.172 436.844 m 1
 300.906 456.156 276.875 468 248 468 c 0
 160 468 117 358 117 262 c 0
 117 223.344 123.969 181.781 138.047 145.906 c 1
 320.172 436.844 l 1
37 -14 m 1
 93.3594 74.5312 l 1
 62.875 123.516 47 189.188 47 262 c 0
 47 416 118 534 248 534 c 0
 291.453 534 328.312 520.812 358.141 497.5 c 1
 382.234 536 l 1
 457.734 536 l 1
 402.531 447.812 l 1
 433.094 399.75 449 334.906 449 262 c 0
 449 108 378 -14 248 -14 c 1
 204.234 -14 167.172 -0.171875 137.234 24.0312 c 1
 113.423 -14 l 1
 37 -14 l 1
EndSplineSet
EndChar
StartChar: thorn
Encoding: 254 254 65535
Width: 490
Flags: HW
Fore
130 0 m 17
 60 0 l 1
 60 710 l 1
 130 710 l 1
 130 543 l 17
 162 589 198 627 269 627 c 0
 392 627 449 496 449 358 c 0
 449 220 408 80 250 80 c 1
 170 80 130 152 130 152 c 0
 130 0 l 17
379 356 m 0
 379 470 336 561 274 561 c 1
 206 561 128 482 128 356 c 1
 128 214 200 146 255 146 c 0
 328 146 379 222 379 356 c 0
EndSplineSet
EndChar
StartChar: figuredash
Encoding: 8210 8210 79
Width: 531
Flags: W
HStem: 264 66<78 453>
Fore
78 330 m 5
 453 330 l 5
 453 264 l 5
 78 264 l 5
 78 330 l 5
EndSplineSet
EndChar
StartChar: endash
Encoding: 8211 8211 80
Width: 489
Flags: W
HStem: 264 66<78 413>
Fore
78 330 m 5
 413 330 l 5
 413 264 l 5
 78 264 l 5
 78 330 l 5
EndSplineSet
EndChar
StartChar: emdash
Encoding: 8212 8212 81
Width: 630
Flags: W
HStem: 264 66<68 561>
Fore
68 330 m 1
 561 330 l 1
 561 264 l 1
 68 264 l 1
 68 330 l 1
EndSplineSet
EndChar
StartChar: quoteleft
Encoding: 8216 8216 79
Width: 188
Flags: W
Fore
44 593 m 5
 44 667 76 693 86 710 c 5
 112 695 l 5
 102 681 90 672 90 639 c 5
 120 639 136 617 136 593 c 5
 136 567 116 547 90 547 c 5
 62 547 44 565 44 593 c 5
EndSplineSet
EndChar
StartChar: quoteright
Encoding: 8217 8217 80
Width: 188
Flags: W
HStem: 688 20G<77 104>
Fore
136 662 m 5
 136 588 104 562 94 545 c 5
 68 560 l 5
 78 574 90 583 90 616 c 5
 60 616 44 638 44 662 c 5
 44 688 64 708 90 708 c 5
 118 708 136 690 136 662 c 5
EndSplineSet
EndChar
StartChar: Euro
Encoding: 8364 8364 87
Width: 532
Flags: W
HStem: 103 66<306 318> 249 66<61 138 197 344> 372 66<64 126 215 347> 518 66<306 318>
VStem: 126 70<326 360>
Fore
126.902 372 m 1
 64 372 l 1
 64 438 l 1
 138.611 438 l 1
 163.131 521.963 222.27 584 306 584 c 0
 384 584 414 564 460 519 c 9
 441.672 500.672 413 472 413 472 c 0
 385 500 364 518 306 518 c 1
 264.776 518 233.547 482.305 215.084 438 c 1
 347 438 l 1
 347 372 l 1
 197.721 372 l 1
 196.581 362.76 196 353.689 196 345 c 0
 196 334.571 196.562 324.567 197.617 315 c 1
 344 315 l 1
 344 249 l 1
 214.806 249 l 1
 237.63 196.947 276.694 169 306 169 c 0
 348 169 373 177 415 223 c 9
 462 176 l 1
 429 138 399 103 306 103 c 1
 215.584 103 161.322 166.269 138.562 249 c 1
 61 249 l 1
 61 315 l 1
 127.247 315 l 1
 126.413 325.575 126 336.265 126 347 c 0
 126 355.41 126.303 363.753 126.902 372 c 1
EndSplineSet
EndChar
